/* XPM */
static char *result[] = {
/* columns rows colors chars-per-pixel */
"56 64 215 2 ",
"   c black",
".  c #010101",
"X  c #020200",
"o  c #020202",
"O  c #040300",
"+  c #130E00",
"@  c #140F00",
"#  c #150F00",
"$  c #151000",
"%  c #161000",
"&  c #171100",
"*  c #171200",
"=  c #1A1300",
"-  c #1A1400",
";  c #1B1400",
":  c #1B1500",
">  c #1C1500",
",  c #1D1600",
"<  c #1E1600",
"1  c #1E1700",
"2  c #1F1700",
"3  c #1F1800",
"4  c #111111",
"5  c gray7",
"6  c #131313",
"7  c gray8",
"8  c #151515",
"9  c #161616",
"0  c gray9",
"q  c #1B1B1B",
"w  c gray11",
"e  c #1D1D1D",
"r  c gray12",
"t  c #201800",
"y  c #211900",
"u  c #221900",
"i  c #221A00",
"p  c #231A00",
"a  c #231B00",
"s  c #261C00",
"d  c #261D01",
"f  c #271D01",
"g  c #201905",
"h  c #211A05",
"j  c #231C06",
"k  c #201F1D",
"l  c #342701",
"z  c #342801",
"x  c #352801",
"c  c #3E2F01",
"v  c #3F2F01",
"b  c #21201E",
"n  c #1F2021",
"m  c #202020",
"M  c gray13",
"N  c #232220",
"B  c #222222",
"V  c #232323",
"C  c #2A2A28",
"Z  c #2B2A29",
"A  c #363121",
"S  c #343331",
"D  c #353432",
"F  c #42391D",
"G  c #463C1F",
"H  c #BE9005",
"J  c #BF9005",
"K  c #C99805",
"L  c #CA9805",
"P  c #CB9A05",
"I  c #D5A105",
"U  c #D6A205",
"Y  c #D7A205",
"T  c #D7A305",
"R  c #D8A305",
"E  c #D9A405",
"W  c #D8A505",
"Q  c #DBA606",
"!  c #DCA606",
"~  c #DDA706",
"^  c #DEA806",
"/  c #DBA70B",
"(  c #E1AA04",
")  c #E3AB04",
"_  c #E0A906",
"`  c #E1AA06",
"'  c #E2AB06",
"]  c #E3AB06",
"[  c #E1AC06",
"{  c #E2AC06",
"}  c #E3AC06",
"|  c #E2AD06",
" . c #E3AD06",
".. c #E4AC04",
"X. c #E4AC06",
"o. c #E4AD06",
"O. c #E5AD06",
"+. c #E4AE06",
"@. c #E6AE06",
"#. c #E7AE06",
"$. c #E7AF06",
"%. c #E8AF06",
"&. c #E8B006",
"*. c #E9B106",
"=. c #EBB206",
"-. c #EAB209",
";. c #EBB309",
":. c #FFBF01",
">. c #FFBF02",
",. c #FABD06",
"<. c #FBBE06",
"1. c #FCBE06",
"2. c #E3B326",
"3. c #E1B328",
"4. c #E4B529",
"5. c #FFC003",
"6. c #FFC004",
"7. c #FFC104",
"8. c #FFC005",
"9. c #FFC006",
"0. c #FFC106",
"q. c #FFC007",
"w. c #FFC107",
"e. c #FFC206",
"r. c #FFC207",
"t. c #FFC307",
"y. c #FFC407",
"u. c #FFC20B",
"i. c #FFC20C",
"p. c #FCC41A",
"a. c #FCC41B",
"s. c #FFC51A",
"d. c #FFC61B",
"f. c #FFC61C",
"g. c #FFC61E",
"h. c #FFC71F",
"j. c #FFC720",
"k. c #FFC721",
"l. c #FFC722",
"z. c #FAC62B",
"x. c #FFC928",
"c. c #FFC929",
"v. c #FFC92A",
"b. c #FFCA2B",
"n. c #FFCB2B",
"m. c #FFCA2C",
"M. c #FFCA2D",
"N. c #FFCB2D",
"B. c #FFCA2E",
"V. c #FFCB2F",
"C. c #FFCC2D",
"Z. c #FFCE3B",
"A. c #FFCE3E",
"S. c #FACC40",
"D. c #FACC41",
"F. c #F8CC48",
"G. c #FFD24C",
"H. c gray70",
"J. c #B4B4B4",
"K. c gray74",
"L. c gray",
"P. c gray75",
"I. c #DBD4BF",
"U. c #FFEEBE",
"Y. c #DBD5C1",
"T. c #D9D4C6",
"R. c #DAD5C7",
"E. c #DAD5C8",
"W. c #DBD6C9",
"Q. c #DBD7CA",
"!. c gray83",
"~. c #D5D5D5",
"^. c #D5D5D6",
"/. c gray84",
"(. c #D6D6D7",
"). c #D7D7D7",
"_. c #D7D8D8",
"`. c #D8D8D8",
"'. c #DADADA",
"]. c #E7DDC1",
"[. c #E9DFC1",
"{. c #E1DCCD",
"}. c #E3DDCD",
"|. c #FFF1CA",
" X c #FFF2CB",
".X c #E4E0D1",
"XX c #E7E1D2",
"oX c #E6E1D3",
"OX c #FFF4D4",
"+X c #FFF4D6",
"@X c #FFF5D7",
"#X c #FFF5D9",
"$X c #FFF6D8",
"%X c #FFF6DE",
"&X c #FFF8DF",
"*X c #E1E2E2",
"=X c #E2E2E3",
"-X c #E3E3E4",
";X c #E2E3E5",
":X c #E4E4E4",
">X c #E6E6E6",
",X c #FFF7E0",
"<X c #FFF9E0",
"1X c #FFF8E6",
"2X c #FFF9E7",
"3X c #FFF9E8",
"4X c #FFF9E9",
"5X c #FFF9EA",
"6X c #FFFBEA",
"7X c #FFFBEB",
"8X c #FFFAEC",
"9X c #FFFBEC",
"0X c #FFFEFC",
"qX c white",
"wX c None",
/* pixels */
"wXwXwXwXwXwXwXwXwXwXwXwXwXwXwXwX                                                wXwXwXwXwXwXwXwXwXwXwXwXwXwXwXwX",
"wXwXwXwXwXwXwXwXwXwXwXwXwXwXwXwX                                                wXwXwXwXwXwXwXwXwXwXwXwXwXwXwXwX",
"wXwXwXwXwXwXwXwXwXwXwXwXwXwXwXwX                                                wXwXwXwXwXwXwXwXwXwXwXwXwXwXwXwX",
"wXwXwXwXwXwXwXwXwXwXwXwXwXwXwXwX              o 5 8 7 7 7 7 7 7 7 7 8 4 .       wXwXwXwXwXwXwXwXwXwXwXwXwXwXwXwX",
"wXwXwXwXwXwXwXwX                              e P./.!.!.!.!.!.!.!.!./.J.6                       wXwXwXwXwXwXwXwX",
"wXwXwXwXwXwXwXwX                              V :XqXqXqXqXqXqXqXqXqXqX`.0                       wXwXwXwXwXwXwXwX",
"wXwXwXwXwXwXwXwX                              V :XqXqXqXqXqXqXqXqXqXqX`.0                       wXwXwXwXwXwXwXwX",
"wXwXwXwXwXwXwXwX              X + $ $ $ $ $ + A XX7X5X5X5X5X5X5X5X5X9XQ.Z 7 8 8 8 8 8 5 .       wXwXwXwXwXwXwXwX",
"wXwXwXwXwXwXwXwX              > H Y I I I I I / z.V.V.V.V.V.V.V.V.V.M.F.T.^.~.~.~.~.).H.5               wXwXwXwX",
"wXwXwXwXwXwXwXwX              i  .y.t.t.t.t.t.e.6.6.6.6.6.6.6.6.6.6.:.v.2XqXqXqXqXqXqX/.9               wXwXwXwX",
"wXwXwXwXwXwXwXwX              u } r.q.w.w.r.r.0.8.8.8.8.8.8.8.8.8.8.5.b.2XqXqXqXqXqXqX/.9               wXwXwXwX",
"wXwXwXwXwXwXwXwX      X + % @ x O.r.w.<.=.&.&.;.p.f.f.f.f.f.f.f.f.f.s.Z.+X5X4X4X4X4X7XE.C 7 9 5 .       wXwXwXwX",
"wXwXwXwX              : H T U Q ,.w.r.` v f s G [.$X@X@X@X@X@X@X@X@X#XU.A.M.B.B.B.B.m.F.R.(.`.H.5       wXwXwXwX",
"wXwXwXwX              y | y.r.r.w.q.r.! -     V :XqXqXqXqXqXqXqXqXqXqX#Xd.>.6.6.6.6.:.b.4XqXqX~.8       wXwXwXwX",
"wXwXwXwX              y ' r.w.w.w.w.r.! -     V :XqXqXqXqXqXqXqXqXqXqX#Xg.8.w.w.w.w.6.B.4XqXqX~.8       wXwXwXwX",
"wXwXwXwX              y ' r.w.w.w.w.r.! -     N .X6X3X3X3X3X3X8X0XqXqX#Xg.8.w.w.w.w.6.B.4XqXqX~.8       wXwXwXwX",
"wXwXwXwX              y ' r.w.w.w.w.r.! -     j 4.C.M.M.M.M.b.G.5XqXqX#Xg.8.w.w.w.w.6.B.4XqXqX~.8               ",
"wXwXwXwX              y ' r.w.w.w.w.r.! -     p ..7.6.6.6.6.>.c.1XqXqX#Xg.8.w.w.w.w.6.B.4XqXqX~.8               ",
"wXwXwXwX              y ' r.w.w.w.w.r.! -     a o.r.w.w.w.w.6.b.2XqXqX#Xg.8.w.w.w.w.6.B.4XqXqX~.8               ",
"wXwXwXwX      X @ & $ x O.r.w.w.w.w.r.! -     a o.r.w.w.w.w.6.b.2XqXqX#Xg.8.w.w.w.w.6.v.OX4X6XT.Z 9 0 6 .       ",
"              ; J E T ~ ,.w.w.w.w.w.r.! -     a o.r.w.w.w.w.6.b.2XqXqX#Xg.8.w.w.w.w.9.i.c.M.b.F.W._.'.J.4       ",
"              t [ y.r.r.w.q.w.w.w.w.r.! -     a o.r.w.w.w.w.6.b.2XqXqX#Xg.8.w.w.w.w.w.9.6.6.:.m.4XqXqX!.8       ",
"              t ` r.w.w.w.w.w.w.w.w.r.! -     a o.r.w.w.w.w.6.b.2XqXqX#Xg.8.w.w.w.w.w.w.w.w.6.V.4XqXqX!.8       ",
"              t ` r.w.w.w.w.w.w.w.w.r.! -     a o.r.w.w.w.w.6.b.2XqXqX#Xg.8.w.w.w.w.w.w.w.w.6.V.4XqXqX!.8       ",
"              t ` r.w.w.w.w.w.w.w.w.r.! -     a o.r.w.w.w.w.6.b.2XqXqX#Xg.8.w.w.w.w.w.w.w.w.6.V.4XqXqX!.8       ",
"              t ` r.w.w.w.w.w.w.w.w.r.! -     a o.r.w.w.w.w.6.b.2XqXqX#Xg.8.w.w.w.w.w.w.w.w.6.V.4XqXqX!.8       ",
"              t ` r.w.w.w.w.w.w.w.w.r.! -     a o.r.w.w.w.w.6.b.2XqXqX#Xg.8.w.w.w.w.w.w.w.w.6.V.4XqXqX!.8       ",
"              t ` r.w.w.w.w.w.w.w.w.r.! -     a o.r.w.w.w.w.6.b.2XqXqX#Xg.8.w.w.w.w.w.w.w.w.6.V.4XqXqX!.8       ",
"              t ` r.w.w.w.w.w.w.w.w.r.! -     a o.r.w.w.w.w.6.b.2XqXqX#Xg.8.w.w.w.w.w.w.w.w.6.V.4XqXqX!.8       ",
"              t ` r.w.w.w.w.w.w.w.w.r.! -     a o.r.w.w.w.w.6.b.2XqXqX#Xg.8.w.w.w.w.w.w.w.w.6.V.4XqXqX!.8       ",
"              t ` r.w.w.w.w.w.w.w.w.r.! -     a o.r.w.w.w.w.6.b.2XqXqX#Xg.8.w.w.w.w.w.w.w.w.6.V.4XqXqX!.8       ",
"              t ` r.w.w.w.w.w.w.w.w.r.! -     a o.r.w.w.w.w.6.b.2XqXqX#Xg.8.w.w.w.w.w.w.w.w.6.V.4XqXqX!.8       ",
"              t ` r.w.w.w.w.w.w.w.w.r.! -     a o.r.w.w.w.w.6.b.2XqXqX#Xg.8.w.w.w.w.w.w.w.w.6.V.4XqXqX!.8       ",
"              t ` r.w.w.w.w.w.w.w.w.r.! -     a o.r.w.w.w.w.6.b.2XqXqX#Xg.8.w.w.w.w.w.w.w.w.6.V.4XqXqX!.8       ",
"              t ` r.w.w.w.w.w.w.w.w.r.! -     a o.r.w.w.w.w.6.b.2XqXqX#Xg.8.w.w.w.w.w.w.w.w.6.V.4XqXqX!.8       ",
"              t ` r.w.w.w.w.w.w.w.w.r.! -     a o.r.w.w.w.w.6.b.2XqXqX#Xg.8.w.w.w.w.w.w.w.w.6.V.4XqXqX!.8       ",
"              t ` r.w.w.w.w.w.w.w.w.r.! -     a o.r.w.w.w.w.6.b.2XqXqX#Xg.8.w.w.w.w.w.w.w.w.6.V.4XqXqX!.8       ",
"              t ` r.w.w.w.w.w.w.w.w.r.! -     a o.r.w.w.w.w.6.b.2XqXqX#Xg.8.w.w.w.w.w.w.w.w.6.V.4XqXqX!.8       ",
"              t ` r.w.w.w.w.w.w.w.w.r.! -     a o.r.w.w.w.w.6.b.2XqXqX#Xg.8.w.w.w.w.w.w.w.w.6.V.4XqXqX!.8       ",
"              t ` r.w.w.w.w.w.w.w.w.r.! -     a o.r.w.w.w.w.6.b.2XqXqX#Xg.8.w.w.w.w.w.w.w.w.6.V.4XqXqX!.8       ",
"              t ` r.w.w.w.w.w.w.w.w.r.! -     a o.r.w.w.w.w.6.b.2XqXqX#Xg.8.w.w.w.w.w.w.w.w.6.V.4XqXqX!.8       ",
"              t ` r.w.w.w.w.w.w.w.w.r.! -     a o.r.w.w.w.w.6.b.2XqXqX#Xg.8.w.w.w.w.w.w.w.w.6.V.4XqXqX!.8       ",
"              t [ t.r.r.w.q.w.w.w.w.r.! -     a o.r.w.w.w.w.6.b.2XqXqX#Xg.8.w.w.w.w.w.9.8.8.>.M.4XqXqX!.8       ",
"              > K O.} $.<.w.w.w.w.w.r.! -     a o.r.w.w.w.w.6.b.2XqXqX#Xg.8.w.w.w.w.9.u.h.k.h.S.oX-X>XL.5       ",
"wXwXwXwX      O 1 i t v @.r.w.w.w.w.r.! -     a o.r.w.w.w.w.6.b.2XqXqX#Xg.8.w.w.w.w.6.x.|.%X&XI.D M B w o       ",
"wXwXwXwX              y ' r.w.w.w.w.r.! -     a o.r.w.w.w.w.6.b.2XqXqX#Xg.8.w.w.w.w.6.B.4XqXqX~.8               ",
"wXwXwXwX              y ' r.w.w.w.w.r.! -     a +.t.r.r.r.r.7.n.2XqXqX#Xg.8.w.w.w.w.6.B.4XqXqX~.8               ",
"wXwXwXwX              y ' r.w.w.w.w.r.! -     3 P o.] ] ] ] ) 2.}.-X;X].a.8.w.w.w.w.6.B.4XqXqX~.8               ",
"wXwXwXwX              y ' r.w.w.w.w.r.! -     O < y y y y y y h b M n F -.0.w.w.w.w.6.B.4XqXqX~.8       wXwXwXwX",
"wXwXwXwX              y ' r.w.w.w.w.r.! -                             d #.r.w.w.w.w.6.B.4XqXqX~.8       wXwXwXwX",
"wXwXwXwX              y { t.r.r.w.q.r.! -                             d #.r.w.9.8.8.>.m.4XqXqX~.8       wXwXwXwX",
"wXwXwXwX              , K X.' @.<.w.r._ l ; > > > > > > > > > > > > = c *.r.9.u.j.l.j.D..X=X:XK.6       wXwXwXwX",
"wXwXwXwXwXwXwXwX      O , y 1 c #.r.w.,.` ~ ^ ^ ^ ^ ^ ^ ^ ^ ^ ^ ^ ^ ~ ] <.w.6.x. X,X<XY.S r M q o       wXwXwXwX",
"wXwXwXwXwXwXwXwX              u } r.q.w.r.r.r.r.r.r.r.r.r.r.r.r.r.r.r.r.w.q.6.M.3XqXqX/.9               wXwXwXwX",
"wXwXwXwXwXwXwXwX              u  .t.r.r.r.r.r.r.w.q.w.w.w.w.w.w.w.w.q.w.r.r.7.N.3XqXqX/.9               wXwXwXwX",
"wXwXwXwXwXwXwXwX              < K } ` ` ` ` ` O.1.w.w.w.w.w.w.w.w.w.w.,.X.` ( 3.{.*X:XL.6               wXwXwXwX",
"wXwXwXwXwXwXwXwX              O > t t t t t < v %.r.w.w.w.w.w.w.w.w.r.~ z 1 t g k m m q o       wXwXwXwXwXwXwXwX",
"wXwXwXwXwXwXwXwX                              a o.r.w.w.w.w.w.w.w.w.r.R *                       wXwXwXwXwXwXwXwX",
"wXwXwXwXwXwXwXwX                              a +.t.r.r.r.r.r.r.r.r.y.W *                       wXwXwXwXwXwXwXwX",
"wXwXwXwXwXwXwXwX                              2 L ' ` ` ` ` ` ` ` ` ] J #                       wXwXwXwXwXwXwXwX",
"wXwXwXwXwXwXwXwXwXwXwXwXwXwXwXwX              O > 2 2 2 2 2 2 2 2 2 2 - X       wXwXwXwXwXwXwXwXwXwXwXwXwXwXwXwX",
"wXwXwXwXwXwXwXwXwXwXwXwXwXwXwXwX                                                wXwXwXwXwXwXwXwXwXwXwXwXwXwXwXwX",
"wXwXwXwXwXwXwXwXwXwXwXwXwXwXwXwX                                                wXwXwXwXwXwXwXwXwXwXwXwXwXwXwXwX",
"wXwXwXwXwXwXwXwXwXwXwXwXwXwXwXwX                                                wXwXwXwXwXwXwXwXwXwXwXwXwXwXwXwX"
};
