/* XPM */
static char *result[] = {
/* columns rows colors chars-per-pixel */
"56 64 215 2 ",
"   c black",
".  c #010101",
"X  c #020200",
"o  c #020202",
"O  c #040300",
"+  c #130E00",
"@  c #140F00",
"#  c #150F00",
"$  c #151000",
"%  c #161000",
"&  c #171100",
"*  c #171200",
"=  c #1A1300",
"-  c #1A1400",
";  c #1B1400",
":  c #1B1500",
">  c #1C1500",
",  c #1D1600",
"<  c #1E1600",
"1  c #1E1700",
"2  c #1F1700",
"3  c #1F1800",
"4  c #111111",
"5  c gray7",
"6  c #131313",
"7  c gray8",
"8  c #151515",
"9  c #161616",
"0  c gray9",
"q  c #1B1B1B",
"w  c gray11",
"e  c #1D1D1D",
"r  c gray12",
"t  c #201800",
"y  c #211900",
"u  c #221900",
"i  c #221A00",
"p  c #231A00",
"a  c #231B00",
"s  c #261C00",
"d  c #261D01",
"f  c #271D01",
"g  c #201905",
"h  c #211A05",
"j  c #231C06",
"k  c #201F1D",
"l  c #342701",
"z  c #342801",
"x  c #352801",
"c  c #3E2F01",
"v  c #3F2F01",
"b  c #21201E",
"n  c #1F2021",
"m  c #202020",
"M  c gray13",
"N  c #232220",
"B  c #222222",
"V  c #232323",
"C  c #2A2A28",
"Z  c #2B2A29",
"A  c #363121",
"S  c #343331",
"D  c #353432",
"F  c #42391D",
"G  c #463C1F",
"H  c #BE9005",
"J  c #BF9005",
"K  c #C99805",
"L  c #CA9805",
"P  c #CB9A05",
"I  c #D5A105",
"U  c #D6A205",
"Y  c #D7A205",
"T  c #D7A305",
"R  c #D8A305",
"E  c #D9A405",
"W  c #D8A505",
"Q  c #DBA606",
"!  c #DCA606",
"~  c #DDA706",
"^  c #DEA806",
"/  c #DBA70B",
"(  c #E1AA04",
")  c #E3AB04",
"_  c #E0A906",
"`  c #E1AA06",
"'  c #E2AB06",
"]  c #E3AB06",
"[  c #E1AC06",
"{  c #E2AC06",
"}  c #E3AC06",
"|  c #E2AD06",
" . c #E3AD06",
".. c #E4AC04",
"X. c #E4AC06",
"o. c #E4AD06",
"O. c #E5AD06",
"+. c #E4AE06",
"@. c #E6AE06",
"#. c #E7AE06",
"$. c #E7AF06",
"%. c #E8AF06",
"&. c #E8B006",
"*. c #E9B106",
"=. c #EBB206",
"-. c #EAB209",
";. c #EBB309",
":. c #FFBF01",
">. c #FFBF02",
",. c #FABD06",
"<. c #FBBE06",
"1. c #FCBE06",
"2. c #E3B326",
"3. c #E1B328",
"4. c #E4B529",
"5. c #FFC003",
"6. c #FFC004",
"7. c #FFC104",
"8. c #FFC005",
"9. c #FFC006",
"0. c #FFC106",
"q. c #FFC007",
"w. c #FFC107",
"e. c #FFC206",
"r. c #FFC207",
"t. c #FFC307",
"y. c #FFC407",
"u. c #FFC20B",
"i. c #FFC20C",
"p. c #FCC41A",
"a. c #FCC41B",
"s. c #FFC51A",
"d. c #FFC61B",
"f. c #FFC61C",
"g. c #FFC61E",
"h. c #FFC71F",
"j. c #FFC720",
"k. c #FFC721",
"l. c #FFC722",
"z. c #FAC62B",
"x. c #FFC928",
"c. c #FFC929",
"v. c #FFC92A",
"b. c #FFCA2B",
"n. c #FFCB2B",
"m. c #FFCA2C",
"M. c #FFCA2D",
"N. c #FFCB2D",
"B. c #FFCA2E",
"V. c #FFCB2F",
"C. c #FFCC2D",
"Z. c #FFCE3B",
"A. c #FFCE3E",
"S. c #FACC40",
"D. c #FACC41",
"F. c #F8CC48",
"G. c #FFD24C",
"H. c gray70",
"J. c #B4B4B4",
"K. c gray74",
"L. c gray",
"P. c gray75",
"I. c #DBD4BF",
"U. c #FFEEBE",
"Y. c #DBD5C1",
"T. c #D9D4C6",
"R. c #DAD5C7",
"E. c #DAD5C8",
"W. c #DBD6C9",
"Q. c #DBD7CA",
"!. c gray83",
"~. c #D5D5D5",
"^. c #D5D5D6",
"/. c gray84",
"(. c #D6D6D7",
"). c #D7D7D7",
"_. c #D7D8D8",
"`. c #D8D8D8",
"'. c #DADADA",
"]. c #E7DDC1",
"[. c #E9DFC1",
"{. c #E1DCCD",
"}. c #E3DDCD",
"|. c #FFF1CA",
" X c #FFF2CB",
".X c #E4E0D1",
"XX c #E7E1D2",
"oX c #E6E1D3",
"OX c #FFF4D4",
"+X c #FFF4D6",
"@X c #FFF5D7",
"#X c #FFF5D9",
"$X c #FFF6D8",
"%X c #FFF6DE",
"&X c #FFF8DF",
"*X c #E1E2E2",
"=X c #E2E2E3",
"-X c #E3E3E4",
";X c #E2E3E5",
":X c #E4E4E4",
">X c #E6E6E6",
",X c #FFF7E0",
"<X c #FFF9E0",
"1X c #FFF8E6",
"2X c #FFF9E7",
"3X c #FFF9E8",
"4X c #FFF9E9",
"5X c #FFF9EA",
"6X c #FFFBEA",
"7X c #FFFBEB",
"8X c #FFFAEC",
"9X c #FFFBEC",
"0X c #FFFEFC",
"qX c white",
"wX c None",
/* pixels */
"wXwXwXwXwXwXwXwXwXwXwXwXwXwXwXwX                                                wXwXwXwXwXwXwXwXwXwXwXwXwXwXwXwX",
"wXwXwXwXwXwXwXwXwXwXwXwXwXwXwXwX                                                wXwXwXwXwXwXwXwXwXwXwXwXwXwXwXwX",
"wXwXwXwXwXwXwXwXwXwXwXwXwXwXwXwX                                                wXwXwXwXwXwXwXwXwXwXwXwXwXwXwXwX",
"wXwXwXwXwXwXwXwXwXwXwXwXwXwXwXwX      . 4 8 7 7 7 7 7 7 7 7 8 5 o               wXwXwXwXwXwXwXwXwXwXwXwXwXwXwXwX",
"wXwXwXwXwXwXwXwX                      6 J./.!.!.!.!.!.!.!.!./.P.e                               wXwXwXwXwXwXwXwX",
"wXwXwXwXwXwXwXwX                      0 `.qXqXqXqXqXqXqXqXqXqX:XV                               wXwXwXwXwXwXwXwX",
"wXwXwXwXwXwXwXwX                      0 `.qXqXqXqXqXqXqXqXqXqX:XV                               wXwXwXwXwXwXwXwX",
"wXwXwXwXwXwXwXwX      . 5 8 8 8 8 8 7 Z Q.9X5X5X5X5X5X5X5X5X7XXXA + $ $ $ $ $ + X               wXwXwXwXwXwXwXwX",
"wXwXwXwX              5 H.).~.~.~.~.^.T.F.M.V.V.V.V.V.V.V.V.V.z./ I I I I I Y H >               wXwXwXwXwXwXwXwX",
"wXwXwXwX              9 /.qXqXqXqXqXqX2Xv.:.6.6.6.6.6.6.6.6.6.6.e.t.t.t.t.t.y. .i               wXwXwXwXwXwXwXwX",
"wXwXwXwX              9 /.qXqXqXqXqXqX2Xb.5.8.8.8.8.8.8.8.8.8.8.0.r.r.w.w.q.r.} u               wXwXwXwXwXwXwXwX",
"wXwXwXwX      . 5 9 7 C E.7X4X4X4X4X5X+XZ.s.f.f.f.f.f.f.f.f.f.p.;.&.&.=.<.w.r.O.x @ % + X       wXwXwXwXwXwXwXwX",
"wXwXwXwX      5 H.`.(.R.F.m.B.B.B.B.M.A.U.#X@X@X@X@X@X@X@X@X$X[.G s f v ` r.w.,.Q U T H :               wXwXwXwX",
"wXwXwXwX      8 ~.qXqX4Xb.:.6.6.6.6.>.d.#XqXqXqXqXqXqXqXqXqXqX:XV     - ! r.q.w.r.r.y.| y               wXwXwXwX",
"wXwXwXwX      8 ~.qXqX4XB.6.w.w.w.w.8.g.#XqXqXqXqXqXqXqXqXqXqX:XV     - ! r.w.w.w.w.r.' y               wXwXwXwX",
"wXwXwXwX      8 ~.qXqX4XB.6.w.w.w.w.8.g.#XqXqX0X8X3X3X3X3X3X6X.XN     - ! r.w.w.w.w.r.' y               wXwXwXwX",
"              8 ~.qXqX4XB.6.w.w.w.w.8.g.#XqXqX5XG.b.M.M.M.M.C.4.j     - ! r.w.w.w.w.r.' y               wXwXwXwX",
"              8 ~.qXqX4XB.6.w.w.w.w.8.g.#XqXqX1Xc.>.6.6.6.6.7...p     - ! r.w.w.w.w.r.' y               wXwXwXwX",
"              8 ~.qXqX4XB.6.w.w.w.w.8.g.#XqXqX2Xb.6.w.w.w.w.r.o.a     - ! r.w.w.w.w.r.' y               wXwXwXwX",
"      . 6 0 9 Z T.6X4XOXv.6.w.w.w.w.8.g.#XqXqX2Xb.6.w.w.w.w.r.o.a     - ! r.w.w.w.w.r.O.x $ & @ X       wXwXwXwX",
"      4 J.'._.W.F.b.M.c.i.9.w.w.w.w.8.g.#XqXqX2Xb.6.w.w.w.w.r.o.a     - ! r.w.w.w.w.w.,.~ T E J ;               ",
"      8 !.qXqX4Xm.:.6.6.9.w.w.w.w.w.8.g.#XqXqX2Xb.6.w.w.w.w.r.o.a     - ! r.w.w.w.w.q.w.r.r.y.[ t               ",
"      8 !.qXqX4XV.6.w.w.w.w.w.w.w.w.8.g.#XqXqX2Xb.6.w.w.w.w.r.o.a     - ! r.w.w.w.w.w.w.w.w.r.` t               ",
"      8 !.qXqX4XV.6.w.w.w.w.w.w.w.w.8.g.#XqXqX2Xb.6.w.w.w.w.r.o.a     - ! r.w.w.w.w.w.w.w.w.r.` t               ",
"      8 !.qXqX4XV.6.w.w.w.w.w.w.w.w.8.g.#XqXqX2Xb.6.w.w.w.w.r.o.a     - ! r.w.w.w.w.w.w.w.w.r.` t               ",
"      8 !.qXqX4XV.6.w.w.w.w.w.w.w.w.8.g.#XqXqX2Xb.6.w.w.w.w.r.o.a     - ! r.w.w.w.w.w.w.w.w.r.` t               ",
"      8 !.qXqX4XV.6.w.w.w.w.w.w.w.w.8.g.#XqXqX2Xb.6.w.w.w.w.r.o.a     - ! r.w.w.w.w.w.w.w.w.r.` t               ",
"      8 !.qXqX4XV.6.w.w.w.w.w.w.w.w.8.g.#XqXqX2Xb.6.w.w.w.w.r.o.a     - ! r.w.w.w.w.w.w.w.w.r.` t               ",
"      8 !.qXqX4XV.6.w.w.w.w.w.w.w.w.8.g.#XqXqX2Xb.6.w.w.w.w.r.o.a     - ! r.w.w.w.w.w.w.w.w.r.` t               ",
"      8 !.qXqX4XV.6.w.w.w.w.w.w.w.w.8.g.#XqXqX2Xb.6.w.w.w.w.r.o.a     - ! r.w.w.w.w.w.w.w.w.r.` t               ",
"      8 !.qXqX4XV.6.w.w.w.w.w.w.w.w.8.g.#XqXqX2Xb.6.w.w.w.w.r.o.a     - ! r.w.w.w.w.w.w.w.w.r.` t               ",
"      8 !.qXqX4XV.6.w.w.w.w.w.w.w.w.8.g.#XqXqX2Xb.6.w.w.w.w.r.o.a     - ! r.w.w.w.w.w.w.w.w.r.` t               ",
"      8 !.qXqX4XV.6.w.w.w.w.w.w.w.w.8.g.#XqXqX2Xb.6.w.w.w.w.r.o.a     - ! r.w.w.w.w.w.w.w.w.r.` t               ",
"      8 !.qXqX4XV.6.w.w.w.w.w.w.w.w.8.g.#XqXqX2Xb.6.w.w.w.w.r.o.a     - ! r.w.w.w.w.w.w.w.w.r.` t               ",
"      8 !.qXqX4XV.6.w.w.w.w.w.w.w.w.8.g.#XqXqX2Xb.6.w.w.w.w.r.o.a     - ! r.w.w.w.w.w.w.w.w.r.` t               ",
"      8 !.qXqX4XV.6.w.w.w.w.w.w.w.w.8.g.#XqXqX2Xb.6.w.w.w.w.r.o.a     - ! r.w.w.w.w.w.w.w.w.r.` t               ",
"      8 !.qXqX4XV.6.w.w.w.w.w.w.w.w.8.g.#XqXqX2Xb.6.w.w.w.w.r.o.a     - ! r.w.w.w.w.w.w.w.w.r.` t               ",
"      8 !.qXqX4XV.6.w.w.w.w.w.w.w.w.8.g.#XqXqX2Xb.6.w.w.w.w.r.o.a     - ! r.w.w.w.w.w.w.w.w.r.` t               ",
"      8 !.qXqX4XV.6.w.w.w.w.w.w.w.w.8.g.#XqXqX2Xb.6.w.w.w.w.r.o.a     - ! r.w.w.w.w.w.w.w.w.r.` t               ",
"      8 !.qXqX4XV.6.w.w.w.w.w.w.w.w.8.g.#XqXqX2Xb.6.w.w.w.w.r.o.a     - ! r.w.w.w.w.w.w.w.w.r.` t               ",
"      8 !.qXqX4XV.6.w.w.w.w.w.w.w.w.8.g.#XqXqX2Xb.6.w.w.w.w.r.o.a     - ! r.w.w.w.w.w.w.w.w.r.` t               ",
"      8 !.qXqX4XV.6.w.w.w.w.w.w.w.w.8.g.#XqXqX2Xb.6.w.w.w.w.r.o.a     - ! r.w.w.w.w.w.w.w.w.r.` t               ",
"      8 !.qXqX4XM.>.8.8.9.w.w.w.w.w.8.g.#XqXqX2Xb.6.w.w.w.w.r.o.a     - ! r.w.w.w.w.q.w.r.r.t.[ t               ",
"      5 L.>X-XoXS.h.k.h.u.9.w.w.w.w.8.g.#XqXqX2Xb.6.w.w.w.w.r.o.a     - ! r.w.w.w.w.w.<.$.} O.K >               ",
"      o w B M D I.&X%X|.x.6.w.w.w.w.8.g.#XqXqX2Xb.6.w.w.w.w.r.o.a     - ! r.w.w.w.w.r.@.v t i 1 O       wXwXwXwX",
"              8 ~.qXqX4XB.6.w.w.w.w.8.g.#XqXqX2Xb.6.w.w.w.w.r.o.a     - ! r.w.w.w.w.r.' y               wXwXwXwX",
"              8 ~.qXqX4XB.6.w.w.w.w.8.g.#XqXqX2Xn.7.r.r.r.r.t.+.a     - ! r.w.w.w.w.r.' y               wXwXwXwX",
"              8 ~.qXqX4XB.6.w.w.w.w.8.a.].;X-X}.2.) ] ] ] ] o.P 3     - ! r.w.w.w.w.r.' y               wXwXwXwX",
"wXwXwXwX      8 ~.qXqX4XB.6.w.w.w.w.0.-.F n M b h y y y y y y < O     - ! r.w.w.w.w.r.' y               wXwXwXwX",
"wXwXwXwX      8 ~.qXqX4XB.6.w.w.w.w.r.#.d                             - ! r.w.w.w.w.r.' y               wXwXwXwX",
"wXwXwXwX      8 ~.qXqX4Xm.>.8.8.9.w.r.#.d                             - ! r.q.w.r.r.t.{ y               wXwXwXwX",
"wXwXwXwX      6 K.:X=X.XD.j.l.j.u.9.r.*.c = > > > > > > > > > > > > ; l _ r.w.<.@.' X.K ,               wXwXwXwX",
"wXwXwXwX      o q M r S Y.<X,X Xx.6.w.<.] ~ ^ ^ ^ ^ ^ ^ ^ ^ ^ ^ ^ ^ ~ ` ,.w.r.#.c 1 y , O       wXwXwXwXwXwXwXwX",
"wXwXwXwX              9 /.qXqX3XM.6.q.w.r.r.r.r.r.r.r.r.r.r.r.r.r.r.r.r.w.q.r.} u               wXwXwXwXwXwXwXwX",
"wXwXwXwX              9 /.qXqX3XN.7.r.r.w.q.w.w.w.w.w.w.w.w.q.w.r.r.r.r.r.r.t. .u               wXwXwXwXwXwXwXwX",
"wXwXwXwX              6 L.:X*X{.3.( ` X.,.w.w.w.w.w.w.w.w.w.w.1.O.` ` ` ` ` } K <               wXwXwXwXwXwXwXwX",
"wXwXwXwXwXwXwXwX      o q m m k g t 1 z ~ r.w.w.w.w.w.w.w.w.r.%.v < t t t t t > O               wXwXwXwXwXwXwXwX",
"wXwXwXwXwXwXwXwX                      * R r.w.w.w.w.w.w.w.w.r.o.a                               wXwXwXwXwXwXwXwX",
"wXwXwXwXwXwXwXwX                      * W y.r.r.r.r.r.r.r.r.t.+.a                               wXwXwXwXwXwXwXwX",
"wXwXwXwXwXwXwXwX                      # J ] ` ` ` ` ` ` ` ` ' L 2                               wXwXwXwXwXwXwXwX",
"wXwXwXwXwXwXwXwXwXwXwXwXwXwXwXwX      X - 2 2 2 2 2 2 2 2 2 2 > O               wXwXwXwXwXwXwXwXwXwXwXwXwXwXwXwX",
"wXwXwXwXwXwXwXwXwXwXwXwXwXwXwXwX                                                wXwXwXwXwXwXwXwXwXwXwXwXwXwXwXwX",
"wXwXwXwXwXwXwXwXwXwXwXwXwXwXwXwX                                                wXwXwXwXwXwXwXwXwXwXwXwXwXwXwXwX",
"wXwXwXwXwXwXwXwXwXwXwXwXwXwXwXwX                                                wXwXwXwXwXwXwXwXwXwXwXwXwXwXwXwX"
};
