/* XPM */
static char *result[] = {
/* columns rows colors chars-per-pixel */
"64 64 200 2 ",
"   c black",
".  c #030202",
"X  c #040200",
"o  c #070400",
"O  c #050404",
"+  c #080706",
"@  c #090707",
"#  c #120B00",
"$  c #130B00",
"%  c #140C00",
"&  c #150C00",
"*  c #150C02",
"=  c #150D04",
"-  c #1F1200",
";  c #171210",
":  c #181311",
">  c #191312",
",  c #1A1410",
"<  c #191412",
"1  c #1B1412",
"2  c #1B1513",
"3  c #191414",
"4  c #1A1514",
"5  c #1B1514",
"6  c #1C1614",
"7  c #1E1715",
"8  c #221300",
"9  c #221400",
"0  c #231400",
"q  c #241500",
"w  c #251500",
"e  c #251600",
"r  c #2F1B00",
"t  c #321D00",
"y  c #291C12",
"u  c #392100",
"i  c #3F2500",
"p  c #28201D",
"a  c #352310",
"s  c #2C2320",
"d  c #2D2320",
"f  c #2E2421",
"g  c #2F2522",
"h  c #2F2624",
"j  c #302522",
"k  c #302623",
"l  c #312723",
"z  c #312724",
"x  c #442F1D",
"c  c #433430",
"v  c #54423D",
"b  c #945600",
"n  c #975800",
"m  c #975904",
"M  c #9F5C00",
"N  c #9F5D00",
"B  c #A05D00",
"V  c #A15E00",
"C  c #A25E00",
"Z  c #A35F00",
"A  c #A56000",
"S  c #A66000",
"D  c #A46002",
"F  c #A96200",
"G  c #AB6400",
"H  c #AE6600",
"J  c #B06700",
"K  c #B16700",
"L  c #B26800",
"P  c #B36800",
"I  c #B46900",
"U  c #B56900",
"Y  c #B56A00",
"T  c #B66A00",
"R  c #B86B00",
"E  c #BA6C00",
"W  c #BA6D00",
"Q  c #BB6D00",
"!  c #BB6D02",
"~  c #BB6E03",
"^  c #BC6D00",
"/  c #BE6D00",
"(  c #BC6E00",
")  c #BD6E00",
"_  c #BE6E00",
"`  c #BF6E00",
"'  c #BE6F00",
"]  c #BF6F00",
"[  c #A46310",
"{  c #A8691D",
"}  c #C06F00",
"|  c #C07000",
" . c #C17100",
".. c #C27000",
"X. c #C27100",
"o. c #C37100",
"O. c #C37200",
"+. c #C07002",
"@. c #C47200",
"#. c #C47300",
"$. c #C57300",
"%. c #C67300",
"&. c #C67400",
"*. c #C07104",
"=. c #C17207",
"-. c #C27410",
";. c #C37511",
":. c #C37512",
">. c #C47510",
",. c #C47512",
"<. c #C47612",
"1. c #C47613",
"2. c #C47614",
"3. c #C57614",
"4. c #C57714",
"5. c #C87914",
"6. c #C87C1D",
"7. c #C97D20",
"8. c #C97D22",
"9. c #CA7E23",
"0. c #CA7E24",
"q. c #CE8124",
"w. c #CE8430",
"e. c #AB8B80",
"r. c #B08E80",
"t. c #BC9A8E",
"y. c #BE9B8E",
"u. c #C79B80",
"i. c #CBA18E",
"p. c #DFAC8C",
"a. c #CDA699",
"s. c #CEA699",
"d. c #CEA799",
"f. c #CEA89B",
"g. c #CFA89B",
"h. c #CFA99B",
"j. c #CFA89D",
"k. c #CFAA9C",
"l. c #D0A99B",
"z. c #D2A99C",
"x. c #D0AA9D",
"c. c #D1AA9D",
"v. c #D2AA9C",
"b. c #D6AC9E",
"n. c #EAAD80",
"m. c #EEB38E",
"M. c #E7B393",
"N. c #F2B999",
"B. c #F3B999",
"V. c #F3BA9B",
"C. c #F4BB9B",
"Z. c #F3BA9C",
"A. c #F3BB9D",
"S. c #F4BA9C",
"D. c #F5BB9E",
"F. c #F4BC9C",
"G. c #F6BD9D",
"H. c #D7B2A3",
"J. c #E3B8A9",
"K. c #E4B8A9",
"L. c #E6B9AA",
"P. c #E5BAAB",
"I. c #E6BCAD",
"U. c #E7BCAD",
"Y. c #E8BBAC",
"T. c #E8BEB1",
"R. c #F8C1A9",
"E. c #F9C1AA",
"W. c #F9C2AB",
"Q. c #F9C2AD",
"!. c #FBC5AD",
"~. c #EFC2B2",
"^. c #F5C2B3",
"/. c #F1C5B5",
"(. c #F0C4B6",
"). c #FCC5B3",
"_. c #F9C5B5",
"`. c #FDC6B5",
"'. c #FCC6B6",
"]. c #FFC8B8",
"[. c #FFCAB9",
"{. c #FFC9BA",
"}. c #FFC9BB",
"|. c #FFCABA",
" X c #FFCBBA",
".X c #FFCABB",
"XX c #FFCBBB",
"oX c #FFCCBB",
"OX c #FFCABC",
"+X c #FFCBBD",
"@X c #FFCBBE",
"#X c #FFCBBF",
"$X c #FFCCBC",
"%X c #FFCDBC",
"&X c #FFCCBE",
"*X c #FFCDBE",
"=X c #FFCEBE",
"-X c #FFCEBF",
";X c #FFD0BF",
":X c None",
/* pixels */
":X:X:X:X:X:X:X:X:X:X:X:X:X:X:X:X:X:X:X:X:X:X:X:XI X.| | | | | | | | | | | | X.E :X:X:X:X:X:X:X:X:X:X:X:X:X:X:X:X:X:X:X:X:X:X:X:X",
":X:X:X:X:X:X:X:X:X:X:X:X:X:X:X:X:X:X:X:X:X:X:X:XI X.| | | | | | | | | | | | X.E :X:X:X:X:X:X:X:X:X:X:X:X:X:X:X:X:X:X:X:X:X:X:X:X",
":X:X:X:X:X:X:X:X:X:X:X:X:X:X:X:X:X:X:X:X:X:X:X:XI X.| | | | | | | | | | | | X.E :X:X:X:X:X:X:X:X:X:X:X:X:X:X:X:X:X:X:X:X:X:X:X:X",
":X:X:X:X:X:X:X:X:X:X:X:X:X:X:X:X:X:X:X:X:X:X:X:XI X.| | | | | | | | | | | |  .W :X:X:X:X:X:X:X:X:X:X:X:X:X:X:X:X:X:X:X:X:X:X:X:X",
":X:X:X:X:X:X:X:X:X:X:X:X:X:X:X:X:X:X:X:XF T I I ) | | | | | | | | | | | | | | ' U I Y H :X:X:X:X:X:X:X:X:X:X:X:X:X:X:X:X:X:X:X:X",
":X:X:X:X:X:X:X:X:X:X:X:X:X:X:X:X:X:X:X:XT $.X.X.| | | | | | | | | | | | | | | | X.X.@.) :X:X:X:X:X:X:X:X:X:X:X:X:X:X:X:X:X:X:X:X",
":X:X:X:X:X:X:X:X:X:X:X:X:X:X:X:X:X:X:X:XI X.| | | | | | | | | | | | | | | | | | | |  .E :X:X:X:X:X:X:X:X:X:X:X:X:X:X:X:X:X:X:X:X",
":X:X:X:X:X:X:X:X:X:X:X:X:X:X:X:X:X:X:X:XI X.| | | | | | | | | | | | | | | | | | | |  .W :X:X:X:X:X:X:X:X:X:X:X:X:X:X:X:X:X:X:X:X",
":X:X:X:X:X:X:X:X:X:X:X:X:X:X:X:XF T I I ) | | | | | | | | | | | | | | | | | | | | | | ' U I Y H :X:X:X:X:X:X:X:X:X:X:X:X:X:X:X:X",
":X:X:X:X:X:X:X:X:X:X:X:X:X:X:X:XT $.X.X.| | | | | | | | | | | | | | | | | | | | | | | | X.X.@.) :X:X:X:X:X:X:X:X:X:X:X:X:X:X:X:X",
":X:X:X:X:X:X:X:X:X:X:X:X:X:X:X:XI X.| | | | | | | | | | | | | | | | | | | | | | | | | | | |  .E :X:X:X:X:X:X:X:X:X:X:X:X:X:X:X:X",
":X:X:X:X:X:X:X:X:X:X:X:X:X:X:X:XI X.| | | | | | | | | | | | | | | | | | | | | | | | | | | |  .W :X:X:X:X:X:X:X:X:X:X:X:X:X:X:X:X",
":X:X:X:X:X:X:X:X:X:X:X:XF T I I ) | | | | | | | | | | | | | | | | | | | | | | | | | | | | | | ' U I Y H :X:X:X:X:X:X:X:X:X:X:X:X",
":X:X:X:X:X:X:X:X:X:X:X:XT $.X.X.| | | | | | | | | | | | | | | | | | | | | | | | | | | | | | | | X.X.@.( :X:X:X:X:X:X:X:X:X:X:X:X",
":X:X:X:X:X:X:X:X:X:X:X:XT $.X.X.X.X.X.X.| | | | | | | | | | | | | | | | | | | | | | | | X.X.X.X.X.X.@.( :X:X:X:X:X:X:X:X:X:X:X:X",
":X:X:X:X:X:X:X:X:X:X:X:XS P K K K K K L ) | | | | | | | | | | | | | | | | | | | | | | ' P J K K K K L G :X:X:X:X:X:X:X:X:X:X:X:X",
":X:X:X:X:X:X:X:XF T T S u 0 w w w w 0 t A O.| | | | | | | | | | | | | | | | | | | | X.P i 9 w w w w q r n R Y H :X:X:X:X:X:X:X:X",
":X:X:X:X:X:X:X:XT $.$.P 0             # N @.| | | | | | | | | | | | | | | | | | | | X.J 9             $ C &.@.) :X:X:X:X:X:X:X:X",
":X:X:X:X:X:X:X:XI X.X.J 0             $ V %.X.X.| | | | | | | | | | | | | | | | X.X.#.P 0             $ B @. .E :X:X:X:X:X:X:X:X",
":X:X:X:X:X:X:X:XI X.X.L t # % * , 5 4 y m I J L ) | | | | | | | | | | | | | | ' P J P D a 3 5 1 = % $ q Z O. .W :X:X:X:X:X:X:X:X",
":X:X:X:XF T I I ) | | ) A N M [ u.j.h.y.x 8 0 t A O.| | | | | | | | | | | | X.P i 9 0 a r.x.g.i.{ M B Z E | | ' U I Y H :X:X:X:X",
":X:X:X:XT $.X.X.| | | | O.@.o.5.G.-X=XI.h     # N @.| | | | | | | | | | | | X.J 9     3 x.;X*X!.q...@.@.| | | | X.X.@.) :X:X:X:X",
":X:X:X:XI X.| | | | | | | | ] 1.B..X|.K.k     & C %.X.X.X.X.X.X.X.X.X.X.X.X.#.P w     2 d.oX{.R.9._ | | | | | | | |  .E :X:X:X:X",
":X:X:X:XI X.| | | | | | | | ] 1.B.OX|.K.k     $ b I K K K K K K K K K K K K P Z 9     2 d.$X{.R.9.` | | | | | | | | X.E :X:X:X:X",
":X:X:X:XI X.| | | | | | | | ] 1.B.OX|.K.k     X - e q w w w w w w w w w w w w 9 o     2 d.$X{.R.9.` | | | | | | | | X.E :X:X:X:X",
":X:X:X:XI X.| | | | | | | | ] 1.B.OX|.K.k                                             2 d.$X{.R.9.` | | | | | | | | X.E :X:X:X:X",
":X:X:X:XI X.| | | | | | | | ] 1.B.OX|.K.k                                             2 d.$X{.R.9.` | | | | | | | | X.E :X:X:X:X",
":X:X:X:XI X.| | | | | | | | ] 1.B.OX|.K.k     . ; 6 5 1 = % % % % % % * , 5 5 > O     2 d.$X{.R.9.` | | | | | | | |  .W :X:X:X:X",
"I I I I ) | | | | | | | | | ] 1.B.OX|.K.k     ; e.c.f.i.{ M B B B B M [ u.j.l.t.p     2 d.$X{.R.9.` | | | | | | | | | ' U I I I ",
"X.X.X.X.| | | | | | | | | | ] 1.B.OX|.K.k     6 c.;X*X!.q...@.@.@.@.o.5.G.-X=XI.z     2 d.$X{.R.9.` | | | | | | | | | | X.X.X.X.",
"| | | | | | | | | | | | | | ] 1.B.OX|.J.g     < s.$X{.R.9._ | | | | ] 1.B..X|.J.g     < d.$X{.R.9.` | | | | | | | | | | | | | | ",
"| | | | | | | | | | | | | | ] 1.B.OX|.L.c : < j z.oX{.R.9.` | | | | ] 1.B.OX|.L.c : < j z.oX{.R.9.` | | | | | | | | | | | | | | ",
"| | | | | | | | | | | | | | ] 1.B.OX]._.b.a.d.z.^.].{.R.9.` | | | | ] 1.B.OX]._.b.a.d.z.^.].{.R.9.` | | | | | | | | | | | | | | ",
"| | | | | | | | | | | | | | ] 1.B.OX].].XX$X$XoX].].{.R.9.` | | | | ] 1.B.OX].].XX$X$XoX].].{.R.9.` | | | | | | | | | | | | | | ",
"| | | | | | | | | | | | | | ] 2.V.@X{.{.{.{.{.{.{.{.OXW.9.` | | | | ] 2.V.@X{.{.{.{.{.{.{.{.OXW.9.` | | | | | | | | | | | | | | ",
"| | | | | | | | | | | | | | ] <.m.Q.R.R.R.R.R.R.R.R.W.Z.7.` | | | | ] <.m.Q.R.R.R.R.R.R.R.R.W.Z.7.` | | | | | | | | | | | | | | ",
"| | | | | | | | | | | | | | | *.6.0.9.9.9.9.9.9.9.9.9.7.=.| | | | | | *.6.0.9.9.9.9.9.9.9.9.9.7.=.| | | | | | | | | | | | | | | ",
"| | | | | | | | | | | | | | | | ` ` ` ` ` ` ` ` ` ` ` ` | | | | | | | | ` ` ` ` ` ` ` ` ` ` ` ` | | | | | | | | | | | | | | | | ",
"X.X.X. .| | | | | | | | | | | | | | | | ] ] ] ] ] ] ] ] ] ] ] ] ] ] ] ] ] ] ] ] ] ] ] ] | | | | | | | | | | | | | | | |  .X.X.X.",
"E E E W ' | | | | | | | | | | | | | | +.>.2.1.1.1.1.1.1.1.1.1.1.1.1.1.1.1.1.1.1.1.1.2.<.*.| | | | | | | | | | | | | | ] Q E E E ",
":X:X:X:XU X.| | | | | | | | | | | | ] >.n.A.B.B.B.B.B.B.B.B.B.B.B.B.B.B.B.B.B.B.B.B.V.m.6.` | | | | | | | | | | | |  .Q :X:X:X:X",
":X:X:X:XI X.| | | | | | | | | | | | ] 2.A.#XOXOXOXOXOXOXOXOXOXOXOXOXOXOXOXOXOXOXOXOX@XQ.0.` | | | | | | | | | | | | X.E :X:X:X:X",
":X:X:X:XY @. .X.X.X.X.X.X.X.X. .} ] _ ,.B.OX].].].].].].].].].].].].].].].].].].].].{.R.8./ ] ]  .X.X.X.X.X.X.X.X. .O.^ :X:X:X:X",
":X:X:X:XH ) E E E E E E E E E ! -.4.,.8.S..X].].].].].].].].].].].].].].].].].].].].{.E.w.;.3.:.~ E E E E E E E E E ^ I :X:X:X:X",
":X:X:X:X:X:X:X:X:X:X:X:X:X:X:X:Xp.F.B.S.).].].].].].].].].].].].].].].].].].].].].].].`.D.N.C.M.:X:X:X:X:X:X:X:X:X:X:X:X:X:X:X:X",
":X:X:X:X:X:X:X:X:X:X:X:X:X:X:X:XT.&XOX.X].].].].].].].].].].].].].].].].].].].].].].].].}.OX+X(.:X:X:X:X:X:X:X:X:X:X:X:X:X:X:X:X",
":X:X:X:X:X:X:X:X:X:X:X:X:X:X:X:XU. X].].].].].].].].].].].].].].].].].].].].].].].].].].].].[.~.:X:X:X:X:X:X:X:X:X:X:X:X:X:X:X:X",
":X:X:X:X:X:X:X:X:X:X:X:X:X:X:X:XP. X].].].].].].].].].].].].].].].].].].].].].].].].].].].].[.~.:X:X:X:X:X:X:X:X:X:X:X:X:X:X:X:X",
":X:X:X:X:X:X:X:X              7 v.oX].].].].].].].].].].].].].].].].].].].].].].].].].].].].[.~.:X:X:X:X:X:X:X:X:X:X:X:X:X:X:X:X",
":X:X:X:X:X:X:X:X              2 d.$X].].].].].].].].].].].].].].].].].].].].].].].].].].].].[.~.:X:X:X:X:X:X:X:X:X:X:X:X:X:X:X:X",
":X:X:X:X:X:X:X:X              5 l.=X|.|.|.|.|.|.].].].].].].].].].].].].].].].].].].].].|.|.$X/.:X:X:X:X:X:X:X:X:X:X:X:X:X:X:X:X",
":X:X:X:X:X:X:X:X              > t.I.K.K.K.K.J.L._.].].].].].].].].].].].].].].].].].].'.Y.J.P.H.:X:X:X:X:X:X:X:X:X:X:X:X:X:X:X:X",
":X:X:X:X                      O p z k k k k g c b.XX].].].].].].].].].].].].].].].].|.Y.v f l s +       :X:X:X:X:X:X:X:X:X:X:X:X",
":X:X:X:X                                      : a.$X].].].].].].].].].].].].].].].].|.J.f               :X:X:X:X:X:X:X:X:X:X:X:X",
":X:X:X:X                                      5 l.=X|.|.].].].].].].].].].].].].|.|.%XP.l               :X:X:X:X:X:X:X:X:X:X:X:X",
":X:X:X:X                                      > t.I.J.L._.].].].].].].].].].].'.Y.J.P.k.d               :X:X:X:X:X:X:X:X:X:X:X:X",
":X:X:X:X                                      O p z g c b.XX].].].].].].].].|.Y.v f l d @               :X:X:X:X:X:X:X:X:X:X:X:X",
":X:X:X:X                                              : a.$X].].].].].].].].|.J.f                       :X:X:X:X:X:X:X:X:X:X:X:X",
":X:X:X:X                                              2 d.$X].].].].].].|.|.%XP.l                       :X:X:X:X:X:X:X:X:X:X:X:X",
":X:X:X:X                                              2 d.$X].].].].].'.Y.J.P.k.d                       :X:X:X:X:X:X:X:X:X:X:X:X",
":X:X:X:X:X:X:X:X                                      2 d.$X].].].].|.Y.v f l d @               :X:X:X:X:X:X:X:X:X:X:X:X:X:X:X:X",
":X:X:X:X:X:X:X:X                                      2 d.$X].].].].|.J.f                       :X:X:X:X:X:X:X:X:X:X:X:X:X:X:X:X",
":X:X:X:X:X:X:X:X                                      2 d.$X].].].].|.K.k                       :X:X:X:X:X:X:X:X:X:X:X:X:X:X:X:X",
":X:X:X:X:X:X:X:X                                      2 d.$X].].].].|.K.k                       :X:X:X:X:X:X:X:X:X:X:X:X:X:X:X:X"
};
