/* XPM */
static char *result[] = {
/* columns rows colors chars-per-pixel */
"64 64 200 2 ",
"   c black",
".  c #030202",
"X  c #040200",
"o  c #070400",
"O  c #050404",
"+  c #080706",
"@  c #090707",
"#  c #120B00",
"$  c #130B00",
"%  c #140C00",
"&  c #150C00",
"*  c #150C02",
"=  c #150D04",
"-  c #1F1200",
";  c #171210",
":  c #181311",
">  c #191312",
",  c #1A1410",
"<  c #191412",
"1  c #1B1412",
"2  c #1B1513",
"3  c #191414",
"4  c #1A1514",
"5  c #1B1514",
"6  c #1C1614",
"7  c #1E1715",
"8  c #221300",
"9  c #221400",
"0  c #231400",
"q  c #241500",
"w  c #251500",
"e  c #251600",
"r  c #2F1B00",
"t  c #321D00",
"y  c #291C12",
"u  c #392100",
"i  c #3F2500",
"p  c #28201D",
"a  c #352310",
"s  c #2C2320",
"d  c #2D2320",
"f  c #2E2421",
"g  c #2F2522",
"h  c #2F2624",
"j  c #302522",
"k  c #302623",
"l  c #312723",
"z  c #312724",
"x  c #442F1D",
"c  c #433430",
"v  c #54423D",
"b  c #945600",
"n  c #975800",
"m  c #975904",
"M  c #9F5C00",
"N  c #9F5D00",
"B  c #A05D00",
"V  c #A15E00",
"C  c #A25E00",
"Z  c #A35F00",
"A  c #A56000",
"S  c #A66000",
"D  c #A46002",
"F  c #A96200",
"G  c #AB6400",
"H  c #AE6600",
"J  c #B06700",
"K  c #B16700",
"L  c #B26800",
"P  c #B36800",
"I  c #B46900",
"U  c #B56900",
"Y  c #B56A00",
"T  c #B66A00",
"R  c #B86B00",
"E  c #BA6C00",
"W  c #BA6D00",
"Q  c #BB6D00",
"!  c #BB6D02",
"~  c #BB6E03",
"^  c #BC6D00",
"/  c #BE6D00",
"(  c #BC6E00",
")  c #BD6E00",
"_  c #BE6E00",
"`  c #BF6E00",
"'  c #BE6F00",
"]  c #BF6F00",
"[  c #A46310",
"{  c #A8691D",
"}  c #C06F00",
"|  c #C07000",
" . c #C17100",
".. c #C27000",
"X. c #C27100",
"o. c #C37100",
"O. c #C37200",
"+. c #C07002",
"@. c #C47200",
"#. c #C47300",
"$. c #C57300",
"%. c #C67300",
"&. c #C67400",
"*. c #C07104",
"=. c #C17207",
"-. c #C27410",
";. c #C37511",
":. c #C37512",
">. c #C47510",
",. c #C47512",
"<. c #C47612",
"1. c #C47613",
"2. c #C47614",
"3. c #C57614",
"4. c #C57714",
"5. c #C87914",
"6. c #C87C1D",
"7. c #C97D20",
"8. c #C97D22",
"9. c #CA7E23",
"0. c #CA7E24",
"q. c #CE8124",
"w. c #CE8430",
"e. c #AB8B80",
"r. c #B08E80",
"t. c #BC9A8E",
"y. c #BE9B8E",
"u. c #C79B80",
"i. c #CBA18E",
"p. c #DFAC8C",
"a. c #CDA699",
"s. c #CEA699",
"d. c #CEA799",
"f. c #CEA89B",
"g. c #CFA89B",
"h. c #CFA99B",
"j. c #CFA89D",
"k. c #CFAA9C",
"l. c #D0A99B",
"z. c #D2A99C",
"x. c #D0AA9D",
"c. c #D1AA9D",
"v. c #D2AA9C",
"b. c #D6AC9E",
"n. c #EAAD80",
"m. c #EEB38E",
"M. c #E7B393",
"N. c #F2B999",
"B. c #F3B999",
"V. c #F3BA9B",
"C. c #F4BB9B",
"Z. c #F3BA9C",
"A. c #F3BB9D",
"S. c #F4BA9C",
"D. c #F5BB9E",
"F. c #F4BC9C",
"G. c #F6BD9D",
"H. c #D7B2A3",
"J. c #E3B8A9",
"K. c #E4B8A9",
"L. c #E6B9AA",
"P. c #E5BAAB",
"I. c #E6BCAD",
"U. c #E7BCAD",
"Y. c #E8BBAC",
"T. c #E8BEB1",
"R. c #F8C1A9",
"E. c #F9C1AA",
"W. c #F9C2AB",
"Q. c #F9C2AD",
"!. c #FBC5AD",
"~. c #EFC2B2",
"^. c #F5C2B3",
"/. c #F1C5B5",
"(. c #F0C4B6",
"). c #FCC5B3",
"_. c #F9C5B5",
"`. c #FDC6B5",
"'. c #FCC6B6",
"]. c #FFC8B8",
"[. c #FFCAB9",
"{. c #FFC9BA",
"}. c #FFC9BB",
"|. c #FFCABA",
" X c #FFCBBA",
".X c #FFCABB",
"XX c #FFCBBB",
"oX c #FFCCBB",
"OX c #FFCABC",
"+X c #FFCBBD",
"@X c #FFCBBE",
"#X c #FFCBBF",
"$X c #FFCCBC",
"%X c #FFCDBC",
"&X c #FFCCBE",
"*X c #FFCDBE",
"=X c #FFCEBE",
"-X c #FFCEBF",
";X c #FFD0BF",
":X c None",
/* pixels */
":X:X:X:X:X:X:X:X:X:X:X:X:X:X:X:X:X:X:X:X:X:X:X:XE X.| | | | | | | | | | | | X.I :X:X:X:X:X:X:X:X:X:X:X:X:X:X:X:X:X:X:X:X:X:X:X:X",
":X:X:X:X:X:X:X:X:X:X:X:X:X:X:X:X:X:X:X:X:X:X:X:XE X.| | | | | | | | | | | | X.I :X:X:X:X:X:X:X:X:X:X:X:X:X:X:X:X:X:X:X:X:X:X:X:X",
":X:X:X:X:X:X:X:X:X:X:X:X:X:X:X:X:X:X:X:X:X:X:X:XE X.| | | | | | | | | | | | X.I :X:X:X:X:X:X:X:X:X:X:X:X:X:X:X:X:X:X:X:X:X:X:X:X",
":X:X:X:X:X:X:X:X:X:X:X:X:X:X:X:X:X:X:X:X:X:X:X:XW  .| | | | | | | | | | | | X.I :X:X:X:X:X:X:X:X:X:X:X:X:X:X:X:X:X:X:X:X:X:X:X:X",
":X:X:X:X:X:X:X:X:X:X:X:X:X:X:X:X:X:X:X:XH Y I U ' | | | | | | | | | | | | | | ) I I T F :X:X:X:X:X:X:X:X:X:X:X:X:X:X:X:X:X:X:X:X",
":X:X:X:X:X:X:X:X:X:X:X:X:X:X:X:X:X:X:X:X) @.X.X.| | | | | | | | | | | | | | | | X.X.$.T :X:X:X:X:X:X:X:X:X:X:X:X:X:X:X:X:X:X:X:X",
":X:X:X:X:X:X:X:X:X:X:X:X:X:X:X:X:X:X:X:XE  .| | | | | | | | | | | | | | | | | | | | X.I :X:X:X:X:X:X:X:X:X:X:X:X:X:X:X:X:X:X:X:X",
":X:X:X:X:X:X:X:X:X:X:X:X:X:X:X:X:X:X:X:XW  .| | | | | | | | | | | | | | | | | | | | X.I :X:X:X:X:X:X:X:X:X:X:X:X:X:X:X:X:X:X:X:X",
":X:X:X:X:X:X:X:X:X:X:X:X:X:X:X:XH Y I U ' | | | | | | | | | | | | | | | | | | | | | | ) I I T F :X:X:X:X:X:X:X:X:X:X:X:X:X:X:X:X",
":X:X:X:X:X:X:X:X:X:X:X:X:X:X:X:X) @.X.X.| | | | | | | | | | | | | | | | | | | | | | | | X.X.$.T :X:X:X:X:X:X:X:X:X:X:X:X:X:X:X:X",
":X:X:X:X:X:X:X:X:X:X:X:X:X:X:X:XE  .| | | | | | | | | | | | | | | | | | | | | | | | | | | | X.I :X:X:X:X:X:X:X:X:X:X:X:X:X:X:X:X",
":X:X:X:X:X:X:X:X:X:X:X:X:X:X:X:XW  .| | | | | | | | | | | | | | | | | | | | | | | | | | | | X.I :X:X:X:X:X:X:X:X:X:X:X:X:X:X:X:X",
":X:X:X:X:X:X:X:X:X:X:X:XH Y I U ' | | | | | | | | | | | | | | | | | | | | | | | | | | | | | | ) I I T F :X:X:X:X:X:X:X:X:X:X:X:X",
":X:X:X:X:X:X:X:X:X:X:X:X( @.X.X.| | | | | | | | | | | | | | | | | | | | | | | | | | | | | | | | X.X.$.T :X:X:X:X:X:X:X:X:X:X:X:X",
":X:X:X:X:X:X:X:X:X:X:X:X( @.X.X.X.X.X.X.| | | | | | | | | | | | | | | | | | | | | | | | X.X.X.X.X.X.$.T :X:X:X:X:X:X:X:X:X:X:X:X",
":X:X:X:X:X:X:X:X:X:X:X:XG L K K K K J P ' | | | | | | | | | | | | | | | | | | | | | | ) L K K K K K P S :X:X:X:X:X:X:X:X:X:X:X:X",
":X:X:X:X:X:X:X:XH Y R n r q w w w w 9 i P X.| | | | | | | | | | | | | | | | | | | | O.A t 0 w w w w 0 u S T T F :X:X:X:X:X:X:X:X",
":X:X:X:X:X:X:X:X) @.&.C $             9 J X.| | | | | | | | | | | | | | | | | | | | @.N #             0 P $.$.T :X:X:X:X:X:X:X:X",
":X:X:X:X:X:X:X:XE  .@.B $             0 P #.X.X.| | | | | | | | | | | | | | | | X.X.%.V $             0 J X.X.I :X:X:X:X:X:X:X:X",
":X:X:X:X:X:X:X:XW  .O.Z q $ % = 1 5 3 a D P J P ' | | | | | | | | | | | | | | ) L J I m y 4 5 , * % # t L X.X.I :X:X:X:X:X:X:X:X",
":X:X:X:XH Y I U ' | | E Z B M { i.g.x.r.a 0 9 i P X.| | | | | | | | | | | | O.A t 0 8 x y.h.j.u.[ M N A ) | | ) I I T F :X:X:X:X",
":X:X:X:X) @.X.X.| | | | @.@...q.!.*X;Xx.3     9 J X.| | | | | | | | | | | | @.N #     h I.=X-XG.5.o.@.O.| | | | X.X.$.T :X:X:X:X",
":X:X:X:XE  .| | | | | | | | _ 9.R.{.oXd.2     w P #.X.X.X.X.X.X.X.X.X.X.X.X.%.C &     k K.|..XB.1.] | | | | | | | | X.I :X:X:X:X",
":X:X:X:XE X.| | | | | | | | ` 9.R.{.$Xd.2     9 Z P K K K K K K K K K K K K I b $     k K.|.OXB.1.] | | | | | | | | X.I :X:X:X:X",
":X:X:X:XE X.| | | | | | | | ` 9.R.{.$Xd.2     o 9 w w w w w w w w w w w w q e - X     k K.|.OXB.1.] | | | | | | | | X.I :X:X:X:X",
":X:X:X:XE X.| | | | | | | | ` 9.R.{.$Xd.2                                             k K.|.OXB.1.] | | | | | | | | X.I :X:X:X:X",
":X:X:X:XE X.| | | | | | | | ` 9.R.{.$Xd.2                                             k K.|.OXB.1.] | | | | | | | | X.I :X:X:X:X",
":X:X:X:XW  .| | | | | | | | ` 9.R.{.$Xd.2     O > 5 5 , * % % % % % % = 1 5 6 ; .     k K.|.OXB.1.] | | | | | | | | X.I :X:X:X:X",
"I I I U ' | | | | | | | | | ` 9.R.{.$Xd.2     p t.l.j.u.[ M B B B B M { i.f.c.e.;     k K.|.OXB.1.] | | | | | | | | | ) I I I I ",
"X.X.X.X.| | | | | | | | | | ` 9.R.{.$Xd.2     z I.=X-XG.5.o.@.@.@.@...q.!.*X;Xc.6     k K.|.OXB.1.] | | | | | | | | | | X.X.X.X.",
"| | | | | | | | | | | | | | ` 9.R.{.$Xd.<     g J.|..XB.1.] | | | | _ 9.R.{.$Xs.<     g J.|.OXB.1.] | | | | | | | | | | | | | | ",
"| | | | | | | | | | | | | | ` 9.R.{.oXz.j < : c L.|.OXB.1.] | | | | ` 9.R.{.oXz.j < : c L.|.OXB.1.] | | | | | | | | | | | | | | ",
"| | | | | | | | | | | | | | ` 9.R.{.].^.z.d.a.b._.].OXB.1.] | | | | ` 9.R.{.].^.z.d.a.b._.].OXB.1.] | | | | | | | | | | | | | | ",
"| | | | | | | | | | | | | | ` 9.R.{.].].oX$X$XXX].].OXB.1.] | | | | ` 9.R.{.].].oX$X$XXX].].OXB.1.] | | | | | | | | | | | | | | ",
"| | | | | | | | | | | | | | ` 9.W.OX{.{.{.{.{.{.{.{.@XV.2.] | | | | ` 9.W.OX{.{.{.{.{.{.{.{.@XV.2.] | | | | | | | | | | | | | | ",
"| | | | | | | | | | | | | | ` 7.Z.W.R.R.R.R.R.R.R.R.Q.m.<.] | | | | ` 7.Z.W.R.R.R.R.R.R.R.R.Q.m.<.] | | | | | | | | | | | | | | ",
"| | | | | | | | | | | | | | | =.7.9.9.9.9.9.9.9.9.9.0.6.*.| | | | | | =.7.9.9.9.9.9.9.9.9.9.0.6.*.| | | | | | | | | | | | | | | ",
"| | | | | | | | | | | | | | | | ` ` ` ` ` ` ` ` ` ` ` ` | | | | | | | | ` ` ` ` ` ` ` ` ` ` ` ` | | | | | | | | | | | | | | | | ",
"X.X.X. .| | | | | | | | | | | | | | | | ] ] ] ] ] ] ] ] ] ] ] ] ] ] ] ] ] ] ] ] ] ] ] ] | | | | | | | | | | | | | | | |  .X.X.X.",
"E E E Q ] | | | | | | | | | | | | | | *.<.2.1.1.1.1.1.1.1.1.1.1.1.1.1.1.1.1.1.1.1.1.2.>.+.| | | | | | | | | | | | | | ' W E E E ",
":X:X:X:XQ  .| | | | | | | | | | | | ` 6.m.V.B.B.B.B.B.B.B.B.B.B.B.B.B.B.B.B.B.B.B.B.A.n.>.] | | | | | | | | | | | | X.U :X:X:X:X",
":X:X:X:XE X.| | | | | | | | | | | | ` 0.Q.@XOXOXOXOXOXOXOXOXOXOXOXOXOXOXOXOXOXOXOXOX#XA.2.] | | | | | | | | | | | | X.I :X:X:X:X",
":X:X:X:X^ O. .X.X.X.X.X.X.X.X. .] ] / 8.R.{.].].].].].].].].].].].].].].].].].].].].OXB.,._ ] }  .X.X.X.X.X.X.X.X. .@.Y :X:X:X:X",
":X:X:X:XI ^ E E E E E E E E E ~ :.3.;.w.E.{.].].].].].].].].].].].].].].].].].].].]..XS.8.,.4.-.! E E E E E E E E E ) H :X:X:X:X",
":X:X:X:X:X:X:X:X:X:X:X:X:X:X:X:XM.C.N.D.`.].].].].].].].].].].].].].].].].].].].].].].).S.B.F.p.:X:X:X:X:X:X:X:X:X:X:X:X:X:X:X:X",
":X:X:X:X:X:X:X:X:X:X:X:X:X:X:X:X(.+XOX}.].].].].].].].].].].].].].].].].].].].].].].].]..XOX&XT.:X:X:X:X:X:X:X:X:X:X:X:X:X:X:X:X",
":X:X:X:X:X:X:X:X:X:X:X:X:X:X:X:X~.[.].].].].].].].].].].].].].].].].].].].].].].].].].].].]. XU.:X:X:X:X:X:X:X:X:X:X:X:X:X:X:X:X",
":X:X:X:X:X:X:X:X:X:X:X:X:X:X:X:X~.[.].].].].].].].].].].].].].].].].].].].].].].].].].].].]. XP.:X:X:X:X:X:X:X:X:X:X:X:X:X:X:X:X",
":X:X:X:X:X:X:X:X:X:X:X:X:X:X:X:X~.[.].].].].].].].].].].].].].].].].].].].].].].].].].].].].oXv.7               :X:X:X:X:X:X:X:X",
":X:X:X:X:X:X:X:X:X:X:X:X:X:X:X:X~.[.].].].].].].].].].].].].].].].].].].].].].].].].].].].].$Xd.2               :X:X:X:X:X:X:X:X",
":X:X:X:X:X:X:X:X:X:X:X:X:X:X:X:X/.$X|.|.].].].].].].].].].].].].].].].].].].].].|.|.|.|.|.|.=Xl.5               :X:X:X:X:X:X:X:X",
":X:X:X:X:X:X:X:X:X:X:X:X:X:X:X:XH.P.J.Y.'.].].].].].].].].].].].].].].].].].]._.L.J.K.K.K.K.I.t.>               :X:X:X:X:X:X:X:X",
":X:X:X:X:X:X:X:X:X:X:X:X      + s l f v Y.|.].].].].].].].].].].].].].].].].XXb.c g k k k k z p O                       :X:X:X:X",
":X:X:X:X:X:X:X:X:X:X:X:X              f J.|.].].].].].].].].].].].].].].].].$Xa.:                                       :X:X:X:X",
":X:X:X:X:X:X:X:X:X:X:X:X              l P.%X|.|.].].].].].].].].].].].].|.|.=Xl.5                                       :X:X:X:X",
":X:X:X:X:X:X:X:X:X:X:X:X              d k.P.J.Y.'.].].].].].].].].].]._.L.J.I.t.>                                       :X:X:X:X",
":X:X:X:X:X:X:X:X:X:X:X:X              @ d l f v Y.|.].].].].].].].].XXb.c g z p O                                       :X:X:X:X",
":X:X:X:X:X:X:X:X:X:X:X:X                      f J.|.].].].].].].].].$Xa.:                                               :X:X:X:X",
":X:X:X:X:X:X:X:X:X:X:X:X                      l P.%X|.|.].].].].].].$Xd.2                                               :X:X:X:X",
":X:X:X:X:X:X:X:X:X:X:X:X                      d k.P.J.Y.'.].].].].].$Xd.2                                               :X:X:X:X",
":X:X:X:X:X:X:X:X:X:X:X:X:X:X:X:X              @ d l f v Y.|.].].].].$Xd.2                                       :X:X:X:X:X:X:X:X",
":X:X:X:X:X:X:X:X:X:X:X:X:X:X:X:X                      f J.|.].].].].$Xd.2                                       :X:X:X:X:X:X:X:X",
":X:X:X:X:X:X:X:X:X:X:X:X:X:X:X:X                      k K.|.].].].].$Xd.2                                       :X:X:X:X:X:X:X:X",
":X:X:X:X:X:X:X:X:X:X:X:X:X:X:X:X                      k K.|.].].].].$Xd.2                                       :X:X:X:X:X:X:X:X"
};
