/* XPM */
static char *result[] = {
/* columns rows colors chars-per-pixel */
"64 64 14 1 ",
"  c #D26B20",
". c #D46C20",
"X c #B95E1C",
"o c #180C04",
"O c #190D04",
"+ c black",
"@ c #D56D21",
"# c #BA5F1C",
"$ c #A25319",
"% c #150B03",
"& c #160B03",
"* c #010100",
"= c #030100",
"- c white",
/* pixels */
"            .XooX.          .XooX.          .XooX.          .XO+",
"            .XooX.          .XooX.          .XooX.          .XO+",
"            .XooX.          .XooX.          .XooX.          .XO+",
"            .XooX.          .XooX.          .XooX.          .XO+",
"............@#oo#@..........@#oo#@..........@#oo#@..........@#O+",
"XXXXXXXXXXXX#$%%$#XXXXXXXXXX#$%%$#XXXXXXXXXX#$%%$#XXXXXXXXXX#$&+",
"ooooooOOooooo%**%oooooooOOooo%**%oooooOOooooo%**%oooooooOOooo%*+",
"ooooo%**%oooooOOooooooo%**%oooOOooooo%**%oooooOOooooooo%**%oooOO",
"XXXX#$%%$#XXXXXXXXXXXX#$%%$#XXXXXXXX#$%%$#XXXXXXXXXXXX#$%%$#XXXX",
"....@#oo#@............@#oo#@........@#oo#@............@#oo#@....",
"    .XooX.            .XooX.        .XooX.            .XooX.    ",
"    .XooX.            .XooX.        .XooX.            .XooX.    ",
"....@#oo#@............@#oo#@........@#oo#@............@#oo#@....",
"XXXX#$%%$#XXXXXXXXXXXX#$%%$#XXXXXXXX#$%%$#XXXXXXXXXXXX#$%%$#XXXX",
"ooooo%**%oooooOOooooooo%**%oooOOooooo%**%oooooOOooooooo%**%oooOO",
"ooooooOOooooo%**%oooooooOOooo%**%oooooOOooooo%**%oooooooOOooo%*+",
"XXXXXXXXXXXX#$%%$#XXXXXXXXXX#$%%$#XXXXXXXXXX#$%%$#XXXXXXXXXX#$&+",
"............@#oo#@..........@#oo#@..........@#oo#@..........@#O+",
"            .XooX.          .XooX.          .XooX.          .XO+",
"            .XooX.          .XooX.          .XooX.          .XO+",
"............@#oo#@..........@#oo#@..........@#oo#@..........@#O+",
"XXXXXXXXXXXX#$%%$#XXXXXXXXXX#$%%$#XXXXXXXXXX#$%%$#XXXXXXXXXX#$&+",
"ooooooOOooooo%**%oooooooOOooo%**%oooooOOooooo%**%oooooooOOooo%*+",
"ooooo%**%oooooOOooooooo%**%oooOOooooo%**%oooooOOooooooo%**%oooOO",
"XXXX#$%%$#XXXXXXXXXXXX#$%%$#XXXXXXXX#$%%$#XXXXXXXXXXXX#$%%$#XXXX",
"....@#oo#@............@#oo#@........@#oo#@............@#oo#@....",
"    .XooX.            .XooX.        .XooX.            .XooX.    ",
"    .XooX.            .XooX.        .XooX.            .XooX.    ",
"....@#oo#@............@#oo#@........@#oo#@............@#oo#@....",
"XXXX#$%%$#XXXXXXXXXXXX#$%%$#XXXXXXXX#$%%$#XXXXXXXXXXXX#$%%$#XXXX",
"ooooo%**%oooooOOooooooo%**%oooOOooooo%**%oooooOOooooooo%**%oooOO",
"ooooooOOooooo%**%oooooooOOooo%**%oooooOOooooo%**%oooooooOOooo%*+",
"XXXXXXXXXXXX#$%%$#XXXXXXXXXX#$%%$#XXXXXXXXXX#$%%$#XXXXXXXXXX#$&+",
"............@#oo#@..........@#oo#@..........@#oo#@..........@#O+",
"            .XooX.          .XooX.          .XooX.          .XO+",
"            .XooX.          .XooX.          .XooX.          .XO+",
"............@#oo#@..........@#oo#@..........@#oo#@..........@#O+",
"XXXXXXXXXXXX#$%%$#XXXXXXXXXX#$%%$#XXXXXXXXXX#$%%$#XXXXXXXXXX#$&+",
"ooooooOOooooo%**%oooooooOOooo%**%oooooOOooooo%**%oooooooOOooo%*+",
"ooooo%**%oooooOOooooooo%**%oooOOooooo%**%oooooOOooooooo%**%oooOO",
"XXXX#$%%$#XXXXXXXXXXXX#$%%$#XXXXXXXX#$%%$#XXXXXXXXXXXX#$%%$#XXXX",
"....@#oo#@............@#oo#@........@#oo#@............@#oo#@....",
"    .XooX.            .XooX.        .XooX.            .XooX.    ",
"    .XooX.            .XooX.        .XooX.            .XooX.    ",
"....@#oo#@............@#oo#@........@#oo#@............@#oo#@....",
"XXXX#$%%$#XXXXXXXXXXXX#$%%$#XXXXXXXX#$%%$#XXXXXXXXXXXX#$%%$#XXXX",
"ooooo%**%oooooOOooooooo%**%oooOOooooo%**%oooooOOooooooo%**%oooOO",
"ooooooOOooooo%**%oooooooOOooo%**%oooooOOooooo%**%oooooooOOooo%*+",
"XXXXXXXXXXXX#$%%$#XXXXXXXXXX#$%%$#XXXXXXXXXX#$%%$#XXXXXXXXXX#$&+",
"............@#oo#@..........@#oo#@..........@#oo#@..........@#O+",
"            .XooX.          .XooX.          .XooX.          .XO+",
"            .XooX.          .XooX.          .XooX.          .XO+",
"............@#oo#@..........@#oo#@..........@#oo#@..........@#O+",
"XXXXXXXXXXXX#$%%$#XXXXXXXXXX#$%%$#XXXXXXXXXX#$%%$#XXXXXXXXXX#$&+",
"ooooooOOooooo%**%oooooooOOooo%**%oooooOOooooo%**%oooooooOOooo%*+",
"ooooo%**%oooooOOooooooo%**%oooOOooooo%**%oooooOOooooooo%**%oooOO",
"XXXX#$%%$#XXXXXXXXXXXX#$%%$#XXXXXXXX#$%%$#XXXXXXXXXXXX#$%%$#XXXX",
"....@#oo#@............@#oo#@........@#oo#@............@#oo#@....",
"    .XooX.            .XooX.        .XooX.            .XooX.    ",
"    .XooX.            .XooX.        .XooX.            .XooX.    ",
"....@#oo#@............@#oo#@........@#oo#@............@#oo#@....",
"XXXX#$%%$#XXXXXXXXXXXX#$%%$#XXXXXXXX#$%%$#XXXXXXXXXXXX#$%%$#XXXX",
"OOOOO&==&OOOOOOOOOOOOOO&==&OOOOOOOOOO&==&OOOOOOOOOOOOOO&==&OOOOO",
"++++++++++++++++++++++++++++++++++++++++++++++++++++++++++++++++"
};
