/* XPM */
static char *result[] = {
/* columns rows colors chars-per-pixel */
"54 64 231 2 ",
"   c black",
".  c #040B05",
"X  c #050C05",
"o  c #060E06",
"O  c #080D05",
"+  c #090D05",
"@  c #0B1006",
"#  c #081308",
"$  c #081409",
"%  c #091409",
"&  c #0E1608",
"*  c #0F1608",
"=  c #0B190B",
"-  c #0C1D0D",
";  c #101608",
":  c #141C0A",
">  c #151E0B",
",  c #19391A",
"<  c #1B3E1C",
"1  c #212F12",
"2  c #2A3B16",
"3  c #1C411D",
"4  c #1E451F",
"5  c #1E4620",
"6  c #1E4720",
"7  c #204A21",
"8  c #245326",
"9  c #275B29",
"0  c #3C5520",
"q  c #3E5721",
"w  c #3F5821",
"e  c #2B642D",
"r  c #2D682F",
"t  c #2D6930",
"y  c #2E6A30",
"u  c #317134",
"i  c #367C39",
"p  c #6B9538",
"a  c #679D3E",
"s  c #3E8E41",
"d  c #3E8F41",
"f  c #3F9142",
"g  c #419041",
"h  c #419644",
"j  c #429946",
"k  c #479B45",
"l  c #439C47",
"z  c #46A149",
"x  c #46A34A",
"c  c #45AC49",
"v  c #46AC4A",
"b  c #46AC4B",
"n  c #47AC4B",
"m  c #49A94D",
"M  c #48AD4C",
"N  c #49AD4D",
"B  c #49AE4D",
"V  c #49AE4E",
"C  c #4AAE4E",
"Z  c #4BAE4F",
"A  c #4CAF4F",
"S  c #50B04F",
"D  c #51B04F",
"F  c #52B14F",
"G  c #57B14D",
"H  c #4BAE50",
"J  c #4CAF50",
"K  c #4DAF51",
"L  c #4CB050",
"P  c #4CB150",
"I  c #4DB151",
"U  c #4FB150",
"Y  c #4DB251",
"T  c #4DB351",
"R  c #4EB052",
"E  c #4FB053",
"W  c #4EB452",
"Q  c #50B150",
"!  c #50B054",
"~  c #51B155",
"^  c #52B156",
"/  c #52B256",
"(  c #53B257",
")  c #54B257",
"_  c #54B258",
"`  c #55B359",
"'  c #57B45B",
"]  c #59B55D",
"[  c #5BB65F",
"{  c #71A841",
"}  c #72AA42",
"|  c #7BAB40",
" . c #7BAD41",
".. c #7DB445",
"X. c #79BE4C",
"o. c #5DB661",
"O. c #5DB761",
"+. c #5EB761",
"@. c #5EB762",
"#. c #5FB762",
"$. c #5FB763",
"%. c #60B763",
"&. c #60B863",
"*. c #60B864",
"=. c #61B864",
"-. c #63B966",
";. c #64BA68",
":. c #65BA68",
">. c #66BA69",
",. c #67BB6B",
"<. c #69BC6D",
"1. c #6BBC6E",
"2. c #6BBD6E",
"3. c #6CBD6F",
"4. c #6DBD70",
"5. c #6DBE71",
"6. c #6EBE72",
"7. c #70BF73",
"8. c #71BF75",
"9. c #7AC04C",
"0. c #73C076",
"q. c #76C279",
"w. c #78C27B",
"e. c #7AC37D",
"r. c #7BC47E",
"t. c #7DC47F",
"y. c #89C247",
"u. c #82C14B",
"i. c #82C24C",
"p. c #89C248",
"a. c #8AC248",
"s. c #8AC249",
"d. c #8BC34A",
"f. c #8BC34B",
"g. c #8CC34B",
"h. c #8CC54A",
"j. c #8EC44F",
"k. c #A0CE6C",
"l. c #7EC581",
"z. c #81C684",
"x. c #81C784",
"c. c #85C888",
"v. c #87C989",
"b. c #87C98A",
"n. c #8FCD92",
"m. c #90CD92",
"M. c #91CE93",
"N. c #96D098",
"B. c #9CD39E",
"V. c #9DD39F",
"C. c #AFD582",
"Z. c #B6D98D",
"A. c #9FD4A1",
"S. c #A0D4A2",
"D. c #A1D5A4",
"F. c #A2D5A4",
"G. c #A3D6A5",
"H. c #AEDAAF",
"J. c #AFDBB1",
"K. c #B0DCB2",
"L. c #B5DEB7",
"P. c #B6DEB7",
"I. c #B6DEB8",
"U. c #B7DEB8",
"Y. c #B8DFB9",
"T. c #BCE1BE",
"R. c #C1DF9F",
"E. c #CBE4AE",
"W. c #CCE5B0",
"Q. c #CDE5B1",
"!. c #D5E9BD",
"~. c #D6EABF",
"^. c #BEE2C0",
"/. c #C5E5C6",
"(. c #C8E6CA",
"). c #CDE9CE",
"_. c #D8EBC3",
"`. c #CEE9D0",
"'. c #CFE9D0",
"]. c #D1EAD2",
"[. c #D2EBD3",
"{. c #D5ECD6",
"}. c #D6ECD7",
"|. c #D8EDD9",
" X c #D9EED9",
".X c #D9EEDA",
"XX c #DBEFDC",
"oX c #DFF0E0",
"OX c #E0F1E0",
"+X c #E1F1E2",
"@X c #E2F2E3",
"#X c #E3F2E3",
"$X c #E4F3E4",
"%X c #E4F3E5",
"&X c #EEF6E4",
"*X c #E8F4E8",
"=X c #E8F5E9",
"-X c #E9F5E9",
";X c #E9F5EA",
":X c #ECF6EC",
">X c #EDF7ED",
",X c #EEF7EE",
"<X c #EEF7EF",
"1X c #EFF7EF",
"2X c #EFF8EF",
"3X c #EFF8F0",
"4X c #F0F8F0",
"5X c #F1F8F1",
"6X c #F2F9F2",
"7X c #F2F9F3",
"8X c #F3F9F3",
"9X c #F4FAF4",
"0X c #F5FAF5",
"qX c #F5FAF6",
"wX c #F6FBF7",
"eX c #F7FBF7",
"rX c #F8FBF8",
"tX c #F8FCF9",
"yX c #F9FCF9",
"uX c #FAFCFA",
"iX c #FAFDFA",
"pX c #FBFDFB",
"aX c #FBFDFD",
"sX c #FCFDFC",
"dX c #FCFDFD",
"fX c #FCFEFC",
"gX c #FDFEFD",
"hX c #FDFEFE",
"jX c #FEFEFE",
"kX c white",
"lX c None",
/* pixels */
"lXlXlXlXlXlXlXlXlXlXlXlXlXlXlXlXlXlXlXlXlXlXlXlXlXlXlXlXlXlXlX                      lXlXlXlXlXlXlXlXlXlXlXlX",
"lXlXlXlXlXlXlXlXlXlXlXlXlXlXlXlXlXlXlXlXlXlXlXlXlXlXlXlXlXlXlX+ O X X X X X X X X X . lXlXlXlXlXlXlXlXlXlXlX",
"lXlXlXlXlXlXlXlXlXlXlXlXlXlXlXlXlXlXlXlXlXlXlXlXlXlXlXlXlX  > p a g d d d d d d d f 7   lXlXlXlXlXlXlXlXlXlX",
"lXlXlXlXlXlXlXlXlXlXlXlXlXlXlXlXlXlXlXlXlXlXlXlXlXlXlXlXlX@ 1 ..9.U L P P P P P P Y 9 o lXlXlXlXlXlXlXlXlXlX",
"lXlXlXlXlXlXlXlXlXlXlXlXlXlXlXlXlXlXlXlXlXlXlXlXlXlXlX  * p } G F A H J J J J J J J z h 3   lXlXlXlXlXlXlXlX",
"lXlXlXlXlXlXlXlXlXlXlXlXlXlXlXlXlXlXlXlXlXlXlXlXlXlXlX  ;  .i.S H H J J J J J J J Z J I 5   lXlXlXlXlXlXlXlX",
"lXlXlXlXlXlXlXlXlXlXlXlXlXlXlXlXlXlXlXlXlXlXlXlXlXlXlX  ; | u.D H J J J J J J J J J J J 4   lXlXlXlXlXlXlXlX",
"lXlXlXlXlXlXlXlXlXlXlXlXlXlXlXlXlXlXlXlXlXlXlXlXlXlXlX  & { X.S H J J J J J J J J J J J 4   lXlXlXlXlXlXlXlX",
"lXlXlXlXlXlXlXlXlXlXlXlXlXlXlXlXlXlXlXlXlXlXlXlXlXlXlX  % k Q A H J J J J J J J J J J J 4   lXlXlXlXlXlXlXlX",
"lXlXlXlXlXlXlXlXlXlXlXlXlXlXlXlXlXlXlXlXlXlXlXlXlXlXlX  $ j L H J J J J J J J J J J J J 4   lXlXlXlXlXlXlXlX",
"lXlXlXlXlXlXlXlXlXlXlXlXlXlXlXlXlXlXlXlXlXlXlXlXlXlXlX  $ j L J J J J J J J J J J J J J 4   lXlXlXlXlXlXlXlX",
"lXlXlXlXlXlXlXlXlXlXlXlXlXlXlXlXlXlXlXlXlXlXlXlXlXlXlX  $ j L J J J J J J J J J J J J J 4   lXlXlXlXlXlXlXlX",
"lXlXlXlXlXlXlXlXlXlXlXlXlXlXlXlXlXlXlXlXlXlXlXlXlXlXlX  $ j L J J J J J J J J J J J J J 4   lXlXlXlXlXlXlXlX",
"lXlXlXlXlXlXlXlXlXlXlXlXlXlXlXlXlXlXlXlXlXlXlXlXlXlXlX  $ j L J J J J J J J J J J J J J 4   lXlXlXlXlXlXlXlX",
"lXlXlXlXlXlXlXlXlXlXlXlXlXlXlXlXlXlXlXlXlXlXlXlXlXlXlX  % l Y J Z J J J J J J J J Z L Y 6   lXlXlXlXlXlXlXlX",
"lXlXlXlXlXlXlXlXlXlXlXlXlXlXlXlXlXlXlXlXlXlXlXlXlXlXlX  # r i m J J J J J J J J J J s u ,   lXlXlXlXlXlXlXlX",
"lXlXlXlXlXlXlXlXlXlXlXlXlXlXlXlXlXlXlXlXlXlXlXlXlXlXlXlXlX  - x T Y Y Y Y Y Y Y Y W 8   lXlXlXlXlXlXlXlXlXlX",
"lXlXlXlXlXlXlXlXlXlXlXlXlXlXlXlXlXlXlXlXlXlXlXlXlXlXlXlXlX  = e t t t t t t t t t y <   lXlXlXlXlXlXlXlXlXlX",
"lXlXlXlXlXlXlXlXlXlXlXlXlXlXlXlXlXlXlXlXlXlXlXlXlXlXlXlXlXlXlX                      lXlXlXlXlXlXlXlXlXlXlXlX",
"lXlXlXlXlXlXlXlXlXlXlXlXlXlXlXlXlXlXlXlXlXlXlXlXlXlXlXlXlXlXlXlX: 0 q q q q q w 2   lXlXlXlXlXlXlXlXlXlXlXlX",
"lXlXlXlXlXlXlXlXlXlXlXlXlXlXlXlXlXlXlXlXlXlXlXlXlXlXlXlXlXlXlXlXlXh.h.h.h.h.h.h.h.lXlXlXlXlXlXlXlXlXlXlXlXlX",
"lXlXlXlXlXlXlXlXlXlXlXlXlXlXlXlXlXlXlXlXlXlXlXlXlXlXlXlXlXlXlXlXlXd.d.d.d.d.d.d.d.lXlXlXlXlXlXlXlXlXlXlXlXlX",
"lXlXlXlXlXlXlXlXlXlXlXlXlXlXlXlXlXlXlXlXlXlXlXlXlXlXlXlXlXlXlXlXlXp.p.p.a.s.d.d.d.lXlXlXlXlXlXlXlXlXlXlXlXlX",
"lXkXkXlXlXlXkXlXlXlXkXkXkXkXkXkXkXkXkXkXkXkXkXkXkXkXkXkXkXkXkXkX&XQ.E.W.Z.d.s.d.d.lXlXlXlXlXlXlXlXlXlXlXlXlX",
"kXkXkXkXlXlXkXkXlXlXkXkXkXkXkXkXkXkXkXkXkXkXkXkXkXkXkXkXkXkXkXkXkXkXkXkX_.g.s.d.d.lXlXlXlXlXlXlXlXlXlXlXlXlX",
"lXlXkXkXkXkXkXkXkXkXkXkXkXkXkXkXkXkXkXkXjXP.n.M.M.M.M.M.M.m.G.qXkXkXkXkX_.g.s.d.d.lXlXlXlXlXlXlXlXlXlXlXlXlX",
"lXlXkXkXkXkXkXkXkXkXkXkXkXkXkXkXkXkXkXjXsXc.c N C N M B V n >.<XjXjXkXkX_.g.s.d.d.lXlXlXlXlXlXlXlXlXlXlXlXlX",
"lXlXlXlXlXlXkXkXkXkXkXkXlXkXkXkXlXkXkXY.c.$.K F.^.:.( J.L.] _ x.D.tXkXkX_.g.s.d.d.lXlXlXlXlXlXlXlXlXlXlXlXlX",
"lXlXlXlXlXlXkXkXkXkXkXkXlXlXkXkXlXpXsXm.c K _ '.tX8.' @X:X;.K n 6.6XfXkX_.g.s.d.d.lXlXlXlXlXlXlXlXlXlXlXlXlX",
"lXlXlXlXlXlXlXlXkXkXlXlXkXkXkXkXkXK.l.&.Z S.`.5XwX8.' +XiX[.P.` ` e.F.hX_.g.s.d.d.lXlXlXlXlXlXlXlXlXlXlXlXlX",
"lXlXlXlXlXlXlXlXkXkXlXlXkXkXkXkXkXV.v R _ /.kXiX2X7.' XXiXkX#X=.E v e.dX_.g.s.d.d.lXlXlXlXlXlXlXlXlXlXlXlXlX",
"lXlXlXlXlXlXlXlXkXkXkXkXlXkXkXkXlX1.C V.}.4XsXB.0._ R 6.b.1XyX XI.! r.dX_.g.s.d.d.lXlXlXlXlXlXlXlXlXlXlXlXlX",
"lXlXlXlXlXlXlXlXkXkXkXkXlXlXkXkXlX/ Z U.kXrX3Xw.n ( ` C o.oXeXkX|.^ r.dX_.g.s.d.d.lXlXlXlXlXlXlXlXlXlXlXlXlX",
"lXlXlXlXlXlXlXlXlXlXkXkXkXkXlXlXkXN.M U.kXA.3.` ^ T.].-.R <.v.0X.X^ r.dX_.g.s.d.d.lXlXlXlXlXlXlXlXlXlXlXlXlX",
"lXlXlXlXlXlXlXlXlXlXkXkXkXkXlXlXkXB.M H.5Xz.b C _  X8X<.B M ;.$X).~ w.aX~.f.s.d.d.lXlXlXlXlXlXlXlXlXlXlXlXlX",
"lXlXlXlXlXlXlXlXlXlXlXlXkXkXkXkXlX&.C [ ,._ C Z _  X8X<.B C E :.=.Z ) lXlXd.s.d.d.lXlXlXlXlXlXlXlXlXlXlXlXlX",
"lXlXlXlXlXlXlXlXlXlXlXlXkXkXkXkXlX5.&.#.@.$.$.~ ( (.OX>.J O.&.@.@.%.>.lXlXd.s.d.d.lXlXlXlXlXlXlXlXlXlXlXlXlX",
"lXlXlXlXlXlXlXlXlXlXlXlXlXlXkXkXkX6X*X=X=X=X%Xq.C o.*.R +.{.;X=X=X*X,XkX!.f.s.d.d.lXlXlXlXlXlXlXlXlXlXlXlXlX",
"lXlXlXlXlXlXlXlXlXlXlXlXlXlXkXkXkXkXkXkXkXkXuXt.N C C C =.-XkXkXkXkXkXkX_.g.s.d.d.lXlXlXlXlXlXlXlXlXlXlXlXlX",
"lXlXlXlXlXlXlXlXlXlXlXlXlXlXlXkXkXkXkXkXkXkXuXr.n B B M #.-XkXkXkXkXkXkX_.g.s.d.d.lXlXlXlXlXlXlXlXlXlXlXlXlX",
"lXlXlXlXlXlXlXlXlXlXlXlXlXlXlXlXkXkXkXkXkXkXuXn.2.4.4.3.l.>XkXkXkXkXkXkX_.g.s.d.d.lXlXlXlXlXlXlXlXlXlXlXlXlX",
"lXlXlXlXlXlXlXlXlXlXlXlXlXlXlXlXlXlXlXkXkXlXlX8X7X7X7X7X9XgXkXkXkXkXkXkX_.g.s.d.d.lXlXlXlXlXlXlXlXlXlXlXlXlX",
"lXlXlXlXlXlXlXlXlXlXlXlXlXlXlXlXlXlXlXkXkXlXlXkXkXkXkXkXkXkXkXkXkXkXkXkX_.g.s.d.d.lXlXlXlXlXlXlXlXlXlXlXlXlX",
"lXlXlXlXlXlXlXlXlXlXlXlXlXlXlXlXlXlXlXkXkXkXkXkXkXkXkXkXkXkXkXkXkXkXkXkX_.g.s.d.d.lXlXlXlXlXlXlXlXlXlXlXlXlX",
"lXlXlXlXlXlXlXlXlXlXlXlXlXlXlXlXlXlXlXlXkXkXkXkXkXkXkXkXkXkXkXkXkXkXkXkX_.g.s.d.d.lXlXlXlXlXlXlXlXlXlXlXlXlX",
"lXlXlXlXlXlXlXlXlXlXlXlXlXlXlXlXlXlXlXlXlXlXlXkXkXlXlXkXkXlXlXkXkXkXkXkX_.g.s.d.d.lXlXlXlXlXlXlXlXlXlXlXlXlX",
"lXlXlXlXlXlXlXlXlXlXlXlXlXlXlXlXlXlXlXlXlXlXlXlXkXlXlXkXkXlXlXkXkXkXkXkX_.g.s.d.d.lXlXlXlXlXlXlXlXlXlXlXlXlX",
"lXlXlXlXlXlXlXlXlXlXlXlXlXlXlXlXlXlXlXlXlXlXlXlXlXkXkXlXlXkXkXkXkXkXkXkX_.g.s.d.d.lXlXlXlXlXlXlXlXlXlXlXlXlX",
"lXlXlXlXlXlXlXlXlXlXlXlXlXlXlXlXlXlXlXlXlXlXlXlXlXkXkXlXlXkXkXkXkXkXkXkX_.g.s.d.d.lXlXlXlXlXlXlXlXlXlXlXlXlX",
"lXlXlXlXlXlXlXlXlXlXlXlXlXlXlXlXlXlXlXlXlXlXlXlXlXkXkXkXkXlXlXkXkXkXkXkX_.g.s.d.d.lXlXlXlXlXlXlXlXlXlXlXlXlX",
"lXlXlXlXlXlXlXlXlXlXlXlXlXlXlXlXlXlXlXlXlXlXlXlXlXlXkXkXkXlXkXkXkXkXkXkX_.g.s.d.d.lXlXlXlXlXlXlXlXlXlXlXlXlX",
"lXlXlXlXlXlXlXlXlXlXlXlXlXlXlXlXlXlXlXlXlXlXlXlXlXlXlXlXlXkXkXkXkXkXkXkX_.g.s.d.d.lXlXlXlXlXlXlXlXlXlXlXlXlX",
"lXlXlXlXlXlXlXlXlXlXlXlXlXlXlXlXlXlXlXlXlXlXlXlXlXlXlXlXlXlXkXkXkXkXkXkX_.g.s.d.d.lXlXlXlXlXlXlXlXlXlXlXlXlX",
"lXlXlXlXlXlXlXlXlXlXlXlXlXlXlXlXlXlXlXlXlXlXlXlXlXlXlXlXlXlXlXkXkXlXlXkX_.g.s.d.d.lXlXlXlXlXlXlXlXlXlXlXlXlX",
"lXlXlXlXlXlXlXlXlXlXlXlXlXlXlXlXlXlXlXlXlXlXlXlXlXlXlXlXlXlXlXlXlXj.k.R.C.d.s.d.d.lXlXlXlXlXlXlXlXlXlXlXlXlX",
"lXlXlXlXlXlXlXlXlXlXlXlXlXlXlXlXlXlXlXlXlXlXlXlXlXlXlXlXlXlXlXlXlXd.s.y.p.s.d.d.d.lXlXlXlXlXlXlXlXlXlXlXlXlX",
"lXlXlXlXlXlXlXlXlXlXlXlXlXlXlXlXlXlXlXlXlXlXlXlXlXlXlXlXlXlXlXlXlXd.d.d.d.d.d.d.d.lXlXlXlXlXlXlXlXlXlXlXlXlX",
"lXlXlXlXlXlXlXlXlXlXlXlXlXlXlXlXlXlXlXlXlXlXlXlXlXlXlXlXlXlXlXlXlXd.d.d.d.d.d.d.d.lXlXlXlXlXlXlXlXlXlXlXlXlX",
"lXlXlXlXlXlXlXlXlXlXlXlXlXlXlXlXlXlXlXlXlXlXlXlXlXlXlXlXlXlXlXlXlXd.d.d.d.d.d.d.d.lXlXlXlXlXlXlXlXlXlXlXlXlX",
"lXlXlXlXlXlXlXlXlXlXlXlXlXlXlXlXlXlXlXlXlXlXlXlXlXlXlXlXlXlXlXlXlXd.d.d.d.d.d.d.d.lXlXlXlXlXlXlXlXlXlXlXlXlX",
"lXlXlXlXlXlXlXlXlXlXlXlXlXlXlXlXlXlXlXlXlXlXlXlXlXlXlXlXlXlXlXlXlXd.d.d.d.d.d.d.d.lXlXlXlXlXlXlXlXlXlXlXlXlX",
"lXlXlXlXlXlXlXlXlXlXlXlXlXlXlXlXlXlXlXlXlXlXlXlXlXlXlXlXlXlXlXlXlXd.d.d.d.d.d.d.d.lXlXlXlXlXlXlXlXlXlXlXlXlX",
"lXlXlXlXlXlXlXlXlXlXlXlXlXlXlXlXlXlXlXlXlXlXlXlXlXlXlXlXlXlXlXlXlXd.d.d.d.d.d.d.d.lXlXlXlXlXlXlXlXlXlXlXlXlX",
"lXlXlXlXlXlXlXlXlXlXlXlXlXlXlXlXlXlXlXlXlXlXlXlXlXlXlXlXlXlXlXlXlXd.d.d.d.d.d.d.d.lXlXlXlXlXlXlXlXlXlXlXlXlX"
};
