/* XPM */
static char *result[] = {
/* columns rows colors chars-per-pixel */
"48 64 170 2 ",
"   c #7D5800",
".  c #7E5900",
"X  c #7F5900",
"o  c #7D5B00",
"O  c #7E5A00",
"+  c #6C6600",
"@  c #6D6600",
"#  c #6E6700",
"$  c #6F6700",
"%  c #6D6800",
"&  c #6D6900",
"*  c #6F6800",
"=  c #6F6900",
"-  c #6D6B00",
";  c #6E6A00",
":  c #736500",
">  c #726600",
",  c #706800",
"<  c #736900",
"1  c #736A00",
"2  c #746A00",
"3  c #BB1D00",
"4  c #B91F00",
"5  c #B72200",
"6  c #CB0D00",
"7  c #C80E00",
"8  c #C90F00",
"9  c #CA0F00",
"0  c #D70000",
"q  c #D50300",
"w  c #D50400",
"e  c #D80000",
"r  c #D90000",
"t  c #DA0000",
"y  c #DB0000",
"u  c #D90400",
"i  c #D90500",
"p  c #C61100",
"a  c #C61200",
"s  c #C71200",
"d  c #C61300",
"f  c #C31500",
"g  c #C81000",
"h  c #C91000",
"j  c #C81100",
"k  c #C81200",
"l  c #CC1100",
"z  c #CA1500",
"x  c #DC1500",
"c  c #DC1600",
"v  c #DC1700",
"b  c #DD1700",
"n  c #D91800",
"m  c #DD1800",
"M  c #DD1900",
"N  c #DE1900",
"B  c #DC1A00",
"V  c #DD1A00",
"C  c #DD1B00",
"Z  c #DF1B00",
"A  c #D91D00",
"S  c #DD1C00",
"D  c #DD1D00",
"F  c #DE1C00",
"G  c #DD1F00",
"H  c #CD2500",
"J  c #CF2500",
"K  c #CE2A00",
"L  c #DD2000",
"P  c #E23300",
"I  c #8F4900",
"U  c #8F4E00",
"Y  c #855300",
"T  c #805500",
"R  c #805600",
"E  c #805700",
"W  c #815700",
"Q  c #825600",
"!  c #805800",
"~  c #936200",
"^  c #956000",
"/  c #946400",
"(  c #807000",
")  c #817000",
"_  c #817100",
"`  c #827100",
"'  c #837100",
"]  c #847100",
"[  c #847200",
"{  c #857200",
"}  c #857300",
"|  c #867300",
" . c #877300",
".. c #847400",
"X. c #877400",
"o. c #867500",
"O. c #887300",
"+. c #887400",
"@. c #897400",
"#. c #8C7500",
"$. c #947A00",
"%. c #957A00",
"&. c #977B00",
"*. c #987B00",
"=. c #987C00",
"-. c #997C00",
";. c #9A7C00",
":. c #9A7D00",
">. c #9B7D00",
",. c #EE7600",
"<. c #EF7900",
"1. c #EC7B00",
"2. c #EF7A00",
"3. c #DF8800",
"4. c #CD9600",
"5. c #CE9600",
"6. c #CF9700",
"7. c #D09700",
"8. c #D09800",
"9. c #D39900",
"0. c #D49900",
"q. c #E08500",
"w. c #F28A00",
"e. c #F28E00",
"r. c #F38E00",
"t. c #F38F00",
"y. c #F48F00",
"u. c #E09F00",
"i. c #E19F00",
"p. c #E69E00",
"a. c #F39000",
"s. c #F39100",
"d. c #F09300",
"f. c #F39300",
"g. c #F49300",
"h. c #F59300",
"j. c #F49400",
"k. c #E0A000",
"l. c #E1A000",
"z. c #E2A000",
"x. c #E3A000",
"c. c #E2A100",
"v. c #E3A100",
"b. c #E2A200",
"n. c #E4A100",
"m. c #E5A100",
"M. c #E5A200",
"N. c #E6A200",
"B. c #E7A200",
"V. c #E7A300",
"C. c #F7A600",
"Z. c #F4A900",
"A. c #F5A900",
"S. c #F8AB00",
"D. c #F9AB00",
"F. c #F8AC00",
"G. c #F9AC00",
"H. c #F8AD00",
"J. c #F9AD00",
"K. c #FAAC00",
"L. c #FBAC00",
"P. c #FAAD00",
"I. c #FBAD00",
"U. c #F8AE00",
"Y. c #F9AE00",
"T. c #F9AF00",
"R. c #FAAE00",
"E. c #FCAD00",
"W. c #F9B000",
"Q. c None",
/* pixels */
"Q.Q.Q.Q.Q.Q.Q.Q.Q.Q.Q.Q.e e e e e e e e e e e e e e e e e e e e Q.Q.Q.Q.Q.Q.Q.Q.Q.Q.Q.Q.Q.Q.Q.Q.",
"Q.Q.Q.Q.Q.Q.Q.Q.Q.Q.Q.Q.e e e e e e e e e e e e e e e e e e e e Q.Q.Q.Q.Q.Q.Q.Q.Q.Q.Q.Q.Q.Q.Q.Q.",
"Q.Q.Q.Q.Q.Q.Q.Q.Q.Q.Q.Q.e e e e e e e e e e e e e e e e e e e e Q.Q.Q.Q.Q.Q.Q.Q.Q.Q.Q.Q.Q.Q.Q.Q.",
"Q.Q.Q.Q.Q.Q.Q.Q.Q.Q.Q.Q.e e e e e e e e e e e e e e e e e e e e Q.Q.Q.Q.Q.Q.Q.Q.Q.Q.Q.Q.Q.Q.Q.Q.",
"Q.Q.Q.Q.Q.Q.Q.Q.e e e e e e e e e e e e e e e e e e e e e e e e e e e e e e e e e e e e Q.Q.Q.Q.",
"Q.Q.Q.Q.Q.Q.Q.Q.e e e e e e e e e e e e e e e e e e e e e e e e e e e e e e e e e e e e Q.Q.Q.Q.",
"Q.Q.Q.Q.Q.Q.Q.Q.t t t t t t t t t t t r e 0 0 0 0 0 0 e r t t r e 0 0 0 e e e e e e e e Q.Q.Q.Q.",
"Q.Q.Q.Q.Q.Q.Q.Q.d d d d d d d d d d a z A G G G G G G A z a a z A G G C i e e e e e e e Q.Q.Q.Q.",
"Q.Q.Q.Q.Q.Q.Q.Q.Q Q Q Q Q Q Q Q Q Q T ^ q.y.e.e.e.e.y.q.^ T T ^ q.y.r.w.Q.Q.Q.Q.Q.Q.Q.Q.Q.Q.Q.Q.",
"Q.Q.Q.Q.Q.Q.Q.Q.= = = = = = = = = = % o.b.R.H.H.H.H.R.b.o.% % o.b.R.H.U.Q.Q.Q.Q.Q.Q.Q.Q.Q.Q.Q.Q.",
"Q.Q.Q.Q.Q.Q.Q.Q.$ $ $ $ , , , , * $ @ | z.K.S.S.S.S.K.z.X.# # X.z.K.S.S.Q.Q.Q.Q.Q.Q.Q.Q.Q.Q.Q.Q.",
"Q.Q.Q.Q.Q.Q.Q.Q.] [ [ ) < , , 1 _ [ ` *.M.G.S.S.S.S.K.z.X.# # X.z.K.S.S.Q.Q.Q.Q.Q.Q.Q.Q.Q.Q.Q.Q.",
"Q.Q.Q.Q., , #  .9.m.m.9.) * $ ' 8.M.n.V.A.S.S.S.S.S.K.z.X.# # X.z.K.S.S.S.S.S.S.S.S.S.S.Q.Q.Q.Q.",
"Q.Q.Q.Q., , # X.z.L.K.m.[ $ # | z.L.D.D.S.S.S.S.S.S.K.z.X.# # X.z.K.S.S.S.S.S.S.S.S.S.S.Q.Q.Q.Q.",
"Q.Q.Q.Q., , # X.z.K.G.n.[ $ #  .z.I.G.G.S.S.S.S.S.S.K.l.| @ @ | v.I.G.G.S.S.S.S.S.S.S.S.Q.Q.Q.Q.",
"Q.Q.Q.Q., , # X.z.K.G.n.[ $ $ ' 6.n.z.N.Z.S.S.S.S.S.G.M.-.[ [ %.9.v.c.N.A.S.S.S.S.S.S.S.Q.Q.Q.Q.",
"Q.Q.Q.Q., , # X.z.K.G.n.[ $ , 2 '  .[ -.M.G.S.S.S.S.S.Z.M.l.v.9.%.{ { &.V.D.S.S.S.S.S.S.S.S.S.S.",
"Q.Q.Q.Q., , # X.z.K.G.n.[ $ , , $ # + | l.K.S.S.S.S.S.S.G.K.E.z.{ @ # ` n.G.S.S.S.S.S.S.S.S.S.S.",
"Q.Q.Q.Q., , # X.v.E.I.N.` @ # # # # + } l.K.S.S.S.S.S.S.K.K.E.x. .# $ [ N.I.K.K.K.K.K.K.S.S.S.S.",
"Q.Q.Q.Q., , # ' 5.z.l.9.%. .+.+.+.+.| >.N.G.S.S.S.S.S.Z.n.u.z.4.` $ * ( 7.l.u.u.u.u.u.n.Z.S.S.S.",
"Q.Q.Q.Q., , , 2 ] O. .$.0.l.k.k.k.k.k.n.Z.S.S.S.S.S.G.N.:.| O.[ 2 , , 1 [ O.O.O.O.O.O.#.Q.Q.Q.Q.",
"Q.Q.Q.Q., , , , # # @ ` N.I.K.K.K.K.K.K.S.S.S.S.S.S.K.l.} + # # , , , , # # # # # # # # Q.Q.Q.Q.",
"Q.Q.Q.Q., , , , , , $ [ n.G.S.S.S.S.S.S.S.S.S.S.S.S.K.z.| @ $ $ $ $ $ $ $ $ $ * , , , , Q.Q.Q.Q.",
"Q.Q.Q.Q., , , , , , $  .B.D.S.S.S.S.S.S.S.S.S.S.S.S.G.M.=.' [ [ [ [ [ [ [ [ [ _ 2 , , , Q.Q.Q.Q.",
"Q.Q.Q.Q.Q.Q.Q.Q.Q.Q.Q.Q.A.S.S.S.S.S.S.S.S.S.S.S.S.S.S.A.B.v.n.n.n.n.n.n.n.n.n.u.Q.Q.Q.Q.Q.Q.Q.Q.",
"Q.Q.Q.Q.Q.Q.Q.Q.Q.Q.Q.Q.S.S.S.S.S.S.S.S.S.S.S.S.S.S.S.S.D.D.D.D.D.D.D.D.D.D.D.D.Q.Q.Q.Q.Q.Q.Q.Q.",
"Q.Q.Q.Q.Q.Q.Q.Q.Q.Q.Q.Q.G.D.D.G.F.F.F.F.G.D.D.D.D.D.D.D.D.D.D.D.S.S.S.S.S.S.S.S.Q.Q.Q.Q.Q.Q.Q.Q.",
"Q.Q.Q.Q.Q.Q.Q.Q.Q.Q.Q.Q.u.x.v.p.d.a.a.d.p.v.x.x.x.x.x.x.x.x.x.N.Z.S.S.S.S.S.S.S.Q.Q.Q.Q.Q.Q.Q.Q.",
"Q.Q.Q.Q.Q.Q.Q.Q., , , 2 ` { ../ K Z Z K / ..{ { { { { { { { { @.Q.Q.Q.Q.Q.Q.Q.Q.Q.Q.Q.Q.Q.Q.Q.Q.",
"Q.Q.Q.Q.Q.Q.Q.Q., , , , $ $ & R p r r p R & $ $ $ $ $ $ $ $ $ # Q.Q.Q.Q.Q.Q.Q.Q.Q.Q.Q.Q.Q.Q.Q.Q.",
"Q.Q.Q.Q.Q.Q.Q.Q., , , , , , = W d t t d W = , , , , , , = ; ; ; Q.Q.Q.Q.Q.Q.Q.Q.Q.Q.Q.Q.Q.Q.Q.Q.",
"Q.Q.Q.Q.Q.Q.Q.Q., , , , , , = W d t t d W = , , , , , : X Q Q W Q.Q.Q.Q.Q.Q.Q.Q.Q.Q.Q.Q.Q.Q.Q.Q.",
"Q.Q.Q.Q., , , , , , , , , , = W d t t d W = , , , , = O 5 s s 4 W = , , , , , , , , , , Q.Q.Q.Q.",
"Q.Q.Q.Q., , , , , , , , , , = W d t t d W = , , , , = W j y y k W = , , , , , , , , , , Q.Q.Q.Q.",
"Q.Q.Q.Q., , , , , , , , , , = W d t t d ! - = = = = - ! d t t d W = , , , , , , , , , , Q.Q.Q.Q.",
"Q.Q.Q.Q., , , , , , , , , , = W d t r 8 I X ! ! ! ! X I 8 r t d W = , , , , , , , , , , Q.Q.Q.Q.",
", , , , , , , , , , , , , , = W d t e q 6 g g g g g g 6 q e t d W = , , , , , , , , , , , , , , ",
", , , , , , , , , , , , , , = W d t e e r r r r r r r r e e t d W = , , , , , , , , , , , , , , ",
"* * * * * * * * , , , , , = ; E a r e e e e e e e e e e e e r a E ; = , , , , , * * * * * * * * ",
"[ [ [ [ [ [ { _ 1 , , > O ! . U H N V c u e e e e e e u c V N H U . ! O > , , 1 _ { [ [ [ [ [ [ ",
"n.n.n.n.n.n.M.7.' $ = o 3 h 7 J 1.g.f.<.m e e e e e e m <.f.g.1.J 7 h 3 o = $ ' 7.M.n.n.n.n.n.n.",
"G.G.G.G.G.G.I.z.| # = X 9 r e F t.T.T.t.S e e e e e e S t.T.T.t.F e r 9 X = # | z.I.G.G.G.G.G.G.",
"S.S.S.S.S.S.K.i.{ + %   8 r e D s.W.W.s.D e e e e e e D s.W.W.s.D e r 8   % + { i.K.S.S.S.S.S.S.",
"S.S.S.S.S.S.K.M.;.| X.~ l r e v ,.a.a.,.v e e e e e e v ,.a.a.,.v e r l ~ X.| ;.M.K.S.S.S.S.S.S.",
"S.S.S.S.S.S.S.Z.n.u.k.3.n e e i B L L B i e e e e e e i B L L B i e e n 3.k.u.n.Z.S.S.S.S.S.S.S.",
"S.S.S.S.S.S.S.S.K.K.P.h.M e e e e 0 0 e e e e e e e e e e 0 0 e e e e M h.P.K.K.S.S.S.S.S.S.S.S.",
"S.S.S.S.S.S.S.S.H.J.Y.j.V e e e e e e e e e e e e e e e e e e e e e e V j.Y.J.H.S.S.S.S.S.S.S.S.",
"S.S.S.S.S.S.S.C.j.t.a.2.x e e e e e e e e e e e e e e e e e e e e e e x 2.a.t.j.C.S.S.S.S.S.S.S.",
"S.S.S.S.S.S.H.g.P M C b u e e e e e e e e e e e e e e e e e e e e e e u b C M P g.H.S.S.S.S.S.S.",
"S.S.S.S.S.S.Y.r.C 0 e e e e e e e e e e e e e e e e e e e e e e e e e e e e 0 C r.Y.S.S.S.S.S.S.",
"S.S.S.S.S.S.J.t.S e e e e e e e e e e e e e e e e e e e e e e e e e e e e e e S t.J.S.S.S.S.S.S.",
"S.S.S.S.S.S.Y.w.M e e e e e e e e e e e e e e e e e e e e e e e e e e e e e e M w.Y.S.S.S.S.S.S.",
"Q.Q.Q.Q.Q.Q.Q.Q.i e e e e e e e e e e e Q.Q.Q.Q.Q.Q.Q.Q.e e e e e e e e e e e i Q.Q.Q.Q.Q.Q.Q.Q.",
"Q.Q.Q.Q.Q.Q.Q.Q.e e e e e e e e e e e e Q.Q.Q.Q.Q.Q.Q.Q.e e e e e e e e e e e e Q.Q.Q.Q.Q.Q.Q.Q.",
"Q.Q.Q.Q.Q.Q.Q.Q.t r r r r r r r e e e e Q.Q.Q.Q.Q.Q.Q.Q.e e e e r r r r r r r t Q.Q.Q.Q.Q.Q.Q.Q.",
"Q.Q.Q.Q.Q.Q.Q.Q.f a a a a a a 8 w e e e Q.Q.Q.Q.Q.Q.Q.Q.e e e w 8 a a a a a a f Q.Q.Q.Q.Q.Q.Q.Q.",
"Q.Q.Q.Q., , , : X Q Q Q Q Q W Y Q.Q.Q.Q.Q.Q.Q.Q.Q.Q.Q.Q.Q.Q.Q.Q.Y W Q Q Q Q Q X : , , , Q.Q.Q.Q.",
"Q.Q.Q.Q., , , , = ; ; ; ; ; ; ; Q.Q.Q.Q.Q.Q.Q.Q.Q.Q.Q.Q.Q.Q.Q.Q.; ; ; ; ; ; ; = , , , , Q.Q.Q.Q.",
"Q.Q.Q.Q., , , , , , , , , , , , Q.Q.Q.Q.Q.Q.Q.Q.Q.Q.Q.Q.Q.Q.Q.Q., , , , , , , , , , , , Q.Q.Q.Q.",
"Q.Q.Q.Q., , , , , , , , , , , , Q.Q.Q.Q.Q.Q.Q.Q.Q.Q.Q.Q.Q.Q.Q.Q., , , , , , , , , , , , Q.Q.Q.Q.",
", , , , , , , , , , , , , , , , Q.Q.Q.Q.Q.Q.Q.Q.Q.Q.Q.Q.Q.Q.Q.Q., , , , , , , , , , , , , , , , ",
", , , , , , , , , , , , , , , , Q.Q.Q.Q.Q.Q.Q.Q.Q.Q.Q.Q.Q.Q.Q.Q., , , , , , , , , , , , , , , , ",
", , , , , , , , , , , , , , , , Q.Q.Q.Q.Q.Q.Q.Q.Q.Q.Q.Q.Q.Q.Q.Q., , , , , , , , , , , , , , , , ",
", , , , , , , , , , , , , , , , Q.Q.Q.Q.Q.Q.Q.Q.Q.Q.Q.Q.Q.Q.Q.Q., , , , , , , , , , , , , , , , "
};
